<svg width="168.000000" height="50.000000" viewBox="0 0 168 50" fill="none" xmlns="http://www.w3.org/2000/svg" xmlns:xlink="http://www.w3.org/1999/xlink">
	<desc>
			Created with Pixso.
	</desc>
	<defs>
		<clipPath id="clip6_391">
			<rect id="app-store-5768091a665de29ed90932b12cc1dc34 1" width="168.000000" height="50.000000" fill="white" fill-opacity="0"/>
		</clipPath>
	</defs>
	<rect id="app-store-5768091a665de29ed90932b12cc1dc34 1" width="168.000000" height="50.000000" fill="#FFFFFF" fill-opacity="0"/>
	<g clip-path="url(#clip6_391)">
		<path id="Vector" d="M4.19995 0L163.8 0C166.12 0 168 1.86548 168 4.16663L168 45.8333C168 48.1345 166.12 50 163.8 50L4.19995 50C1.88037 50 0 48.1345 0 45.8333L0 4.16663C0 1.86548 1.88037 0 4.19995 0Z" fill="#151515" fill-opacity="1.000000" fill-rule="evenodd"/>
		<path id="Vector" d="M35.3738 14.7584C38.9355 14.7584 41.2119 18.189 41.2119 18.189C41.2119 18.189 37.74 20.0668 37.74 24.1417C37.74 28.9792 42.1038 30.3875 42.1038 30.3875C42.1038 30.3875 38.6597 38.521 34.79 38.521C32.6145 38.521 32.469 37.2751 29.5779 37.2751C27.0664 37.2751 26.2207 38.5195 24.3083 38.5195C20.657 38.5195 15.9419 30.5889 15.9419 24.1376C15.9419 17.439 20.7158 14.7556 23.709 14.7556C26.3369 14.7556 27.4331 16.2972 29.5471 16.2972C31.3293 16.2972 32.7322 14.7556 35.3738 14.7556L35.3738 14.7584ZM34.7607 7.92505C35.283 11.2112 32.291 15.2722 28.7126 15.1404C28.1877 10.964 32.0447 8.15002 34.7578 7.9292L34.7607 7.92505Z" fill="#FFFFFF" fill-opacity="1.000000" fill-rule="evenodd"/>
		<mask id="mask6_373" mask-type="alpha" maskUnits="userSpaceOnUse" x="52.729492" y="8.126465" width="100.211914" height="36.383301">
			<path id="Vector" d="M52.7295 8.12646L152.941 8.12646L152.941 44.5098L52.7295 44.5098L52.7295 8.12781L52.7295 8.12646Z" fill="#FFFFFF" fill-opacity="1.000000" fill-rule="nonzero"/>
		</mask>
		<g mask="url(#mask6_373)">
			<path id="Vector" d="M61.9612 32.6028L60.5471 28.2194C60.3972 27.7749 60.116 26.7194 59.7043 25.0596L59.6538 25.0596C59.4858 25.7736 59.2227 26.8276 58.8586 28.2222L57.4685 32.6069L61.9624 32.6069L61.9612 32.6028ZM66.8513 39.6028L63.9954 39.6028L62.4329 34.6721L56.9995 34.6721L55.5085 39.6028L52.7295 39.6028L58.1152 22.8152L61.4402 22.8152L66.8513 39.604L66.8513 39.6028Z" fill="#FFFFFF" fill-opacity="1.000000" fill-rule="evenodd"/>
		</g>
		<mask id="mask6_377" mask-type="alpha" maskUnits="userSpaceOnUse" x="52.729492" y="8.126465" width="100.211914" height="36.383301">
			<path id="Vector" d="M52.7295 8.12646L152.941 8.12646L152.941 44.5098L52.7295 44.5098L52.7295 8.12646Z" fill="#FFFFFF" fill-opacity="1.000000" fill-rule="nonzero"/>
		</mask>
		<g mask="url(#mask6_377)">
			<path id="Vector" d="M77.9438 33.5C77.9438 32.3223 77.6807 31.3501 77.1514 30.5862C76.5715 29.7904 75.7932 29.3917 74.8174 29.3917C74.1567 29.3917 73.5574 29.614 73.0183 30.0515C72.4792 30.4937 72.1077 31.1042 71.9641 31.7834C71.8801 32.1167 71.8381 32.3862 71.8381 32.6028L71.8381 34.6223C71.8381 35.5029 72.1042 36.2473 72.6445 36.8542C73.1821 37.4597 73.8809 37.7639 74.7405 37.7639C75.7485 37.7639 76.5352 37.3723 77.0981 36.5945C77.6606 35.8125 77.9424 34.7834 77.9424 33.5042L77.9438 33.5ZM80.6724 33.407C80.6724 35.4653 80.1162 37.0918 79.002 38.2876C78.0039 39.3486 76.762 39.8806 75.2837 39.8806C73.6877 39.8806 72.5396 39.3083 71.8396 38.1626L71.8396 44.5154L69.1655 44.5154L69.1655 31.4819C69.1655 30.1863 69.1321 28.8597 69.0676 27.5001L71.4238 27.5001L71.5737 29.4222L71.624 29.4222C72.52 27.9751 73.8738 27.2515 75.6938 27.2515C77.1162 27.2515 78.3032 27.8168 79.2539 28.9459C80.2031 30.0779 80.6792 31.564 80.6792 33.407L80.6724 33.407Z" fill="#FFFFFF" fill-opacity="1.000000" fill-rule="evenodd"/>
		</g>
		<mask id="mask6_381" mask-type="alpha" maskUnits="userSpaceOnUse" x="52.729492" y="8.126465" width="100.211914" height="36.383301">
			<path id="Vector" d="M52.7295 8.12646L152.941 8.12646L152.941 44.5098L52.7295 44.5098L52.7295 8.12646Z" fill="#FFFFFF" fill-opacity="1.000000" fill-rule="nonzero"/>
		</mask>
		<g mask="url(#mask6_381)">
			<path id="Vector" d="M91.8179 33.5C91.8179 32.3223 91.5518 31.3501 91.02 30.5862C90.4419 29.7904 89.666 29.3917 88.6904 29.3917C88.0278 29.3917 87.4302 29.614 86.8896 30.0515C86.3506 30.4934 85.9795 31.1042 85.8369 31.7834C85.7529 32.1167 85.7109 32.3862 85.7109 32.6028L85.7109 34.6223C85.7109 35.5029 85.98 36.2473 86.5161 36.8542C87.0537 37.4585 87.7539 37.7639 88.6162 37.7639C89.624 37.7639 90.4121 37.3723 90.9722 36.5945C91.5322 35.8125 91.8164 34.7834 91.8164 33.5042L91.8179 33.5ZM94.5464 33.407C94.5464 35.4653 93.9863 37.0918 92.8735 38.2876C91.874 39.3486 90.6333 39.8806 89.1553 39.8806C87.5547 39.8806 86.4067 39.3083 85.7109 38.1626L85.7109 44.5154L83.0288 44.5154L83.0288 31.4819C83.0288 30.1863 82.9951 28.8597 82.9307 27.5001L85.2866 27.5001L85.4365 29.4222L85.4873 29.4222C86.3804 27.9751 87.7368 27.2515 89.5581 27.2515C90.9795 27.2515 92.168 27.8168 93.1196 28.9459C94.0679 30.0779 94.5464 31.564 94.5464 33.407Z" fill="#FFFFFF" fill-opacity="1.000000" fill-rule="evenodd"/>
		</g>
		<path id="Vector" d="M110.06 34.8945C110.06 36.3252 109.56 37.4863 108.571 38.3835C107.482 39.3599 105.963 39.8501 104.014 39.8501C102.215 39.8501 100.772 39.5 99.6826 38.8042L100.303 36.5613C101.479 37.2585 102.772 37.6069 104.177 37.6069C105.188 37.6069 105.973 37.3806 106.534 36.9238C107.099 36.4653 107.381 35.8569 107.381 35.0945C107.381 34.4141 107.147 33.8418 106.686 33.3765C106.221 32.9126 105.454 32.4792 104.378 32.082C101.447 30.9849 99.9824 29.3834 99.9824 27.2737C99.9824 25.896 100.5 24.7695 101.532 23.8849C102.565 23.0071 103.936 22.5654 105.64 22.5654C107.166 22.5654 108.433 22.832 109.441 23.3625L108.769 25.557C107.819 25.0404 106.75 24.7834 105.554 24.7834C104.606 24.7834 103.865 25.0167 103.334 25.4821C102.889 25.896 102.662 26.4015 102.662 27.0029C102.662 27.6654 102.919 28.2153 103.432 28.646C103.88 29.0432 104.692 29.4764 105.864 29.9404C107.306 30.5237 108.363 31.2043 109.042 31.9819C109.724 32.7627 110.063 33.7349 110.063 34.8945L110.06 34.8945ZM118.945 29.5195L115.991 29.5195L115.991 35.3945C115.991 36.8918 116.512 37.6377 117.555 37.6377C118.035 37.6377 118.434 37.5959 118.745 37.5127L118.821 39.5542C118.294 39.7529 117.6 39.8528 116.739 39.8528C115.679 39.8528 114.853 39.5278 114.257 38.8806C113.66 38.2307 113.361 37.1445 113.361 35.6167L113.361 29.5099L111.603 29.5099L111.603 27.496L113.362 27.496L113.362 25.2793L115.994 24.4821L115.994 27.496L118.948 27.496L118.948 29.5182L118.945 29.5195ZM129.468 33.5154C129.468 32.407 129.229 31.4556 128.751 30.6599C128.188 29.6987 127.383 29.2181 126.343 29.2181C125.269 29.2181 124.444 29.6987 123.886 30.6599C123.404 31.4556 123.165 32.4238 123.165 33.5654C123.165 34.6765 123.403 35.6294 123.886 36.4238C124.465 37.3848 125.272 37.8655 126.322 37.8655C127.344 37.8655 128.146 37.375 128.73 36.3987C129.22 35.5862 129.468 34.6265 129.468 33.5154ZM132.247 33.4543C132.247 35.3154 131.715 36.8433 130.656 38.0376C129.546 39.2668 128.075 39.8806 126.238 39.8806C124.465 39.8806 123.056 39.2903 122.004 38.114C120.957 36.9333 120.431 35.4473 120.431 33.6558C120.431 31.7808 120.974 30.2432 122.055 29.0487C123.14 27.8542 124.6 27.2543 126.437 27.2543C128.207 27.2543 129.629 27.8459 130.704 29.0223C131.733 30.1667 132.244 31.6431 132.244 33.4529L132.247 33.4543ZM140.96 29.8668C140.682 29.8157 140.398 29.7906 140.115 29.7917C139.171 29.7917 138.443 30.1501 137.931 30.8667C137.483 31.4973 137.262 32.2944 137.262 33.2556L137.262 39.6099L134.582 39.6099L134.582 31.314C134.582 29.9209 134.554 28.6473 134.503 27.5029L136.837 27.5029L136.936 29.8196L137.01 29.8196C137.294 29.0251 137.737 28.3834 138.349 27.9028C138.907 27.4832 139.587 27.2554 140.287 27.2543C140.532 27.2543 140.754 27.271 140.953 27.3029L140.956 29.8695L140.96 29.8668ZM150.388 32.2834C150.408 31.4849 150.231 30.7974 149.87 30.2141C149.404 29.4668 148.69 29.0931 147.733 29.0931C146.856 29.0931 146.143 29.457 145.6 30.1904C145.155 30.771 144.889 31.4683 144.808 32.2808L150.388 32.2834ZM152.944 32.9807C152.944 33.4626 152.912 33.8696 152.846 34.2029L144.808 34.2029C144.835 35.3972 145.228 36.3113 145.972 36.9419C146.65 37.5029 147.526 37.7849 148.602 37.7849C149.792 37.7849 150.878 37.5974 151.855 37.2153L152.275 39.0806C151.134 39.5806 149.783 39.8306 148.232 39.8306C146.361 39.8306 144.893 39.2778 143.825 38.175C142.761 37.071 142.225 35.5862 142.225 33.7278C142.225 31.9043 142.72 30.3848 143.714 29.1724C144.756 27.8779 146.164 27.2307 147.932 27.2307C149.671 27.2307 150.987 27.8779 151.88 29.1724C152.587 30.1973 152.944 31.4683 152.944 32.9778L152.944 32.9807ZM58.2666 13.3668L57.5708 11.214C57.4978 10.9918 57.3635 10.4779 57.1562 9.65845L57.1311 9.65845C57.0471 10.0112 56.9238 10.5265 56.739 11.214L56.0574 13.3668L58.2666 13.3668ZM60.6675 16.8043L59.2676 16.8043L58.4976 14.3806L55.8264 14.3806L55.0955 16.8057L53.7263 16.8057L56.3723 8.55566L58.0076 8.55566L60.6675 16.8043ZM67.2896 10.8571L65.0425 16.8043L63.7615 16.8043L61.5916 10.8571L63.0056 10.8571L64.019 14.0029C64.1899 14.5306 64.3354 15.0306 64.4448 15.5071L64.4824 15.5071C64.5806 15.0792 64.7261 14.5765 64.9082 14.0029L65.9062 10.8557L67.2854 10.8557L67.2896 10.8571ZM71.8816 13.8431C70.4199 13.8431 69.6877 14.1987 69.6877 15.0417C69.6877 15.6667 70.0657 15.9723 70.5908 15.9723C71.2627 15.9723 71.8828 15.4585 71.8828 14.7612L71.8828 13.8446L71.8816 13.8431ZM72.0676 16.8057L71.9697 16.121L71.9319 16.121C71.53 16.6724 70.9448 16.9404 70.2002 16.9404C69.1362 16.9404 68.3801 16.1946 68.3801 15.1904C68.3801 13.7209 69.6484 12.9626 71.8438 12.9626L71.8438 12.8514C71.8438 12.0681 71.4292 11.6765 70.6118 11.6765C70.0627 11.6667 69.5232 11.8206 69.0632 12.1182L68.7944 11.2488C69.3447 10.9056 70.0266 10.7349 70.833 10.7349C72.3813 10.7349 73.1626 11.5543 73.1626 13.1959L73.1626 15.3849C73.1626 15.9875 73.1877 16.4542 73.2466 16.807L72.0635 16.807L72.0676 16.8057Z" fill="#FFFFFF" fill-opacity="1.000000" fill-rule="evenodd"/>
		<mask id="mask6_386" mask-type="alpha" maskUnits="userSpaceOnUse" x="52.729492" y="8.126465" width="100.211914" height="36.383301">
			<path id="Vector" d="M52.7295 8.12646L152.941 8.12646L152.941 44.5098L52.7295 44.5098L52.7295 8.12781L52.7295 8.12646Z" fill="#FFFFFF" fill-opacity="1.000000" fill-rule="nonzero"/>
		</mask>
		<g mask="url(#mask6_386)">
			<path id="Vector" d="M76.7844 16.8069L75.4685 16.8069L75.4685 10.8568L76.7844 10.8568L76.7844 16.8069ZM76.1013 9.87634C75.9968 9.87659 75.8936 9.85596 75.7971 9.8158C75.7009 9.77563 75.6138 9.71667 75.541 9.64246C75.468 9.56824 75.4109 9.48022 75.373 9.38367C75.3352 9.28711 75.3171 9.18408 75.3201 9.08044C75.3201 8.63049 75.6743 8.29858 76.1265 8.29858C76.5774 8.29858 76.9426 8.63184 76.9302 9.08325C76.9302 9.56104 76.5898 9.87915 76.1013 9.87915L76.1013 9.87634ZM80.4414 16.8069L79.1255 16.8069L79.1255 8.12634L80.4414 8.12634L80.4414 16.8069ZM85.8594 13.843C84.3936 13.843 83.6611 14.1985 83.6611 15.0416C83.6611 15.6666 84.0396 15.9722 84.5645 15.9722C85.2319 15.9722 85.855 15.4583 85.855 14.761L85.855 13.8444L85.8594 13.843ZM86.0415 16.8054L85.9434 16.1207L85.9067 16.1207C85.5039 16.6721 84.9185 16.9402 84.1738 16.9402C83.1138 16.9402 82.3564 16.1943 82.3564 15.1902C82.3564 13.7207 83.625 12.9624 85.8218 12.9624L85.8218 12.8513C85.8218 12.068 85.4058 11.6763 84.5894 11.6763C84.0015 11.6763 83.4907 11.8235 83.041 12.1179L82.7749 11.2472C83.3237 10.9069 84.0073 10.7333 84.812 10.7333C86.3604 10.7333 87.1431 11.5527 87.1431 13.1971L87.1431 15.3846C87.1431 15.9861 87.167 16.4513 87.2271 16.8054L86.0415 16.8054ZM92.21 11.7736C91.4512 11.7736 90.7563 12.4347 90.7563 13.3527L90.7563 14.3944C90.7563 15.2139 91.3794 15.8875 92.1846 15.8875C93.1729 15.8875 93.7598 15.0791 93.7598 13.7943C93.7598 12.5944 93.1479 11.7736 92.2085 11.7736L92.21 11.7736ZM92.4741 16.9402C91.6343 16.9402 91.0112 16.5846 90.6079 15.8875L90.583 15.8875L90.5059 16.8041L89.3857 16.8041C89.4194 16.3291 89.4321 15.7902 89.4321 15.2028L89.4321 8.12354L90.751 8.12354L90.751 11.7235L90.7749 11.7235C91.1641 11.0624 91.7969 10.7318 92.6646 10.7318C94.0928 10.7318 95.0923 11.9583 95.0923 13.7457C95.0923 15.593 93.9819 16.9402 92.4702 16.9402L92.4741 16.9402ZM98.3643 16.8069L97.0483 16.8069L97.0483 8.12634L98.3643 8.12634L98.3643 16.8069ZM104.325 13.2069C104.325 12.2902 103.863 11.6403 103.021 11.6403C102.262 11.6403 101.668 12.3013 101.579 13.2069L104.325 13.2069ZM105.534 14.1486L101.579 14.1486C101.606 15.2764 102.349 15.9125 103.445 15.9125C104.033 15.9125 104.567 15.8124 105.041 15.6305L105.247 16.5471C104.687 16.793 104.028 16.9152 103.258 16.9152C101.406 16.9152 100.309 15.7402 100.309 13.9152C100.309 12.093 101.432 10.7207 103.113 10.7207C104.621 10.7207 105.577 11.8485 105.577 13.5499C105.58 13.7791 105.567 13.9874 105.531 14.1471L105.534 14.1486ZM113.569 11.7C112.618 11.7 112.006 12.593 112.006 13.8416C112.006 15.0638 112.631 15.9583 113.56 15.9583C114.484 15.9583 115.107 15.0027 115.107 13.8138C115.107 12.6055 114.497 11.6985 113.571 11.6985L113.569 11.7ZM113.518 16.9402C111.786 16.9402 110.662 15.6429 110.662 13.8805C110.662 12.0443 111.81 10.7333 113.619 10.7333C115.322 10.7333 116.472 11.9694 116.472 13.786C116.472 15.6471 115.289 16.943 113.518 16.943L113.518 16.9402ZM123.556 16.8082L122.24 16.8082L122.24 13.3916C122.24 12.3402 121.836 11.8124 121.043 11.8124C120.263 11.8124 119.724 12.4861 119.724 13.2708L119.724 16.8082L118.408 16.8082L118.408 12.5582C118.408 12.0332 118.394 11.4694 118.359 10.8583L119.518 10.8583L119.58 11.7749L119.616 11.7749C119.966 11.136 120.69 10.7333 121.492 10.7333C122.738 10.7333 123.554 11.6874 123.554 13.2416L123.554 16.8054L123.556 16.8082ZM132.173 11.85L130.724 11.85L130.724 14.7388C130.724 15.475 130.979 15.8416 131.49 15.8416C131.722 15.8416 131.918 15.8167 132.078 15.7805L132.112 16.7847C131.856 16.8818 131.513 16.9319 131.09 16.9319C130.05 16.9319 129.432 16.3568 129.432 14.8485L129.432 11.8485L128.568 11.8485L128.568 10.8568L129.432 10.8568L129.432 9.7666L130.724 9.37354L130.724 10.8568L132.173 10.8568L132.173 11.8472L132.173 11.85ZM139.149 16.8082L137.83 16.8082L137.83 13.4193C137.83 12.3527 137.427 11.8138 136.635 11.8138C135.951 11.8138 135.318 12.2791 135.318 13.2222L135.318 16.811L134 16.811L134 8.12634L135.318 8.12634L135.318 11.7L135.347 11.7C135.758 11.0513 136.354 10.7333 137.125 10.7333C138.382 10.7333 139.149 11.7152 139.149 13.2694L139.149 16.8082ZM144.672 13.2111C144.672 12.2943 144.21 11.6416 143.367 11.6416C142.611 11.6416 142.016 12.3041 141.929 13.2111L144.673 13.2111L144.672 13.2111ZM145.88 14.1514L141.927 14.1514C141.952 15.2791 142.694 15.9152 143.792 15.9152C144.379 15.9152 144.914 15.8152 145.387 15.6333L145.595 16.5499C145.035 16.7958 144.376 16.918 143.606 16.918C141.751 16.918 140.655 15.7429 140.655 13.918C140.655 12.0957 141.775 10.7235 143.459 10.7235C144.972 10.7235 145.923 11.8513 145.923 13.5527C145.929 13.7819 145.917 13.9902 145.881 14.1499L145.88 14.1514Z" fill="#FFFFFF" fill-opacity="1.000000" fill-rule="evenodd"/>
		</g>
	</g>
</svg>
