<svg width="168.000000" height="50.000000" viewBox="0 0 168 50" fill="none" xmlns="http://www.w3.org/2000/svg" xmlns:xlink="http://www.w3.org/1999/xlink">
	<desc>
			Created with Pixso.
	</desc>
	<defs>
		<clipPath id="clip6_413">
			<rect id="google-play-1b282a5faa8753db97e49dd35e98dd25 1" width="168.000000" height="50.000000" fill="white" fill-opacity="0"/>
		</clipPath>
		<linearGradient id="paint_linear_6_393_0" x1="400.500610" y1="-527.480347" x2="1405.696777" y2="1439.186279" gradientUnits="userSpaceOnUse">
			<stop stop-color="#19A3B4"/>
			<stop offset="0.348170" stop-color="#5BC3AF"/>
			<stop offset="0.922340" stop-color="#C9F7A6"/>
			<stop offset="1.000000" stop-color="#D7FEA5"/>
		</linearGradient>
		<linearGradient id="paint_linear_6_394_0" x1="-148.423096" y1="-1073.067993" x2="939.504272" y2="1112.069580" gradientUnits="userSpaceOnUse">
			<stop stop-color="#FC227C"/>
			<stop offset="1.000000" stop-color="#FEEB7B"/>
		</linearGradient>
		<linearGradient id="paint_linear_6_395_0" x1="470.515625" y1="-441.658264" x2="795.494141" y2="2536.264648" gradientUnits="userSpaceOnUse">
			<stop stop-color="#0E4DA0"/>
			<stop offset="1.000000" stop-color="#6BFED4"/>
		</linearGradient>
		<linearGradient id="paint_linear_6_396_0" x1="2674.983643" y1="277.311279" x2="134.715576" y2="1960.028076" gradientUnits="userSpaceOnUse">
			<stop stop-color="#FC472E"/>
			<stop offset="0.003320" stop-color="#FC472E"/>
			<stop offset="1.000000" stop-color="#893CD8"/>
		</linearGradient>
	</defs>
	<rect id="google-play-1b282a5faa8753db97e49dd35e98dd25 1" width="168.000000" height="50.000000" fill="#FFFFFF" fill-opacity="0"/>
	<g clip-path="url(#clip6_413)">
		<path id="Vector" d="M4.2002 0L163.8 0C166.12 0 168 1.86548 168 4.16663L168 45.8333C168 48.1345 166.12 50 163.8 50L4.2002 50C1.88037 50 0 48.1345 0 45.8333L0 4.16663C0 1.86548 1.88037 0 4.2002 0Z" fill="#151515" fill-opacity="1.000000" fill-rule="evenodd"/>
		<path id="Vector" d="M34.9438 20.293L16.2861 10.0708C15.7568 9.7832 15.27 9.71375 14.875 9.83875L30.1558 25.061L34.9438 20.2902L34.9438 20.293Z" fill="url(#paint_linear_6_393_0)" fill-opacity="1.000000" fill-rule="nonzero"/>
		<path id="Vector" d="M34.9683 29.8583L41.3379 26.3694C42.6289 25.6583 42.6289 24.5028 41.3379 23.7944L34.9443 20.2944L30.1562 25.0638L34.9683 29.8583Z" fill="url(#paint_linear_6_394_0)" fill-opacity="1.000000" fill-rule="evenodd"/>
		<path id="Vector" d="M14.875 9.83887C14.3052 10.0139 13.937 10.5889 13.937 11.45L13.9424 38.7083C13.9424 39.564 14.2983 40.1277 14.8496 40.3167L30.1562 25.0638L14.875 9.83887Z" fill="url(#paint_linear_6_395_0)" fill-opacity="1.000000" fill-rule="nonzero"/>
		<path id="Vector" d="M14.8496 40.3193C15.2471 40.4529 15.7456 40.3889 16.2861 40.0945L34.9648 29.8583L30.1558 25.0667L14.8496 40.3193Z" fill="url(#paint_linear_6_396_0)" fill-opacity="1.000000" fill-rule="nonzero"/>
		<path id="Vector" d="M57.3608 8.44019C58.5371 8.44019 59.3516 8.96521 59.8809 9.50269L59.0552 10.4235C58.6294 10.0138 58.1631 9.73181 57.375 9.73181C55.874 9.73181 54.8662 10.8846 54.8662 12.7651C54.8662 14.6735 55.7705 15.8263 57.4644 15.8263C57.9307 15.8263 58.3955 15.6985 58.6685 15.4541L58.6685 13.6486L57.0752 13.6486L57.0752 12.4346L60.0112 12.4346L60.0112 16.1207C59.4302 16.6582 58.4346 17.1179 57.2842 17.1179C55.0327 17.1179 53.3262 15.5833 53.3262 12.8054C53.3262 10.0652 55.0845 8.44019 57.3584 8.44019L57.3608 8.44019ZM65.5732 13.2638C65.5732 12.2666 65.1494 11.6666 64.2827 11.6666C63.5322 11.6666 62.8853 12.2152 62.7563 13.2638L65.5732 13.2638ZM64.2432 10.5277C65.9624 10.5277 66.8682 11.754 66.8682 13.5068C66.8682 13.7902 66.8403 14.0443 66.8042 14.1985L62.769 14.1985C62.895 15.3374 63.623 15.9791 64.645 15.9791C65.1855 15.9791 65.6504 15.8124 66.1152 15.5179L66.6191 16.4388C66.0132 16.8346 65.2515 17.1166 64.4492 17.1166C62.6895 17.1166 61.3203 15.9012 61.3203 13.8276C61.3218 11.7777 62.7563 10.5277 64.2432 10.5277ZM68.3174 11.8444L67.4146 11.8444L67.4146 10.7444L68.397 10.6804L68.5791 8.96375L69.8193 8.96375L69.8193 10.6804L71.4351 10.6804L71.4351 11.8444L69.8193 11.8444L69.8193 14.8387C69.8193 15.5804 70.1025 15.9388 70.7114 15.9388C70.9312 15.9388 71.1899 15.8749 71.3691 15.7999L71.6299 16.886C71.2798 17.0013 70.8403 17.1166 70.3359 17.1166C68.8618 17.1166 68.3203 16.1943 68.3203 14.8387L68.3203 11.8444L68.3174 11.8444Z" fill="#E7E7E7" fill-opacity="1.000000" fill-rule="evenodd"/>
		<mask id="mask6_400" mask-type="alpha" maskUnits="userSpaceOnUse" x="51.502930" y="7.902832" width="104.918945" height="37.222168">
			<path id="Vector" d="M51.5029 7.90283L156.422 7.90283L156.422 45.125L51.5029 45.125L51.5029 7.90283Z" fill="#E7E7E7" fill-opacity="1.000000" fill-rule="nonzero"/>
		</mask>
		<g mask="url(#mask6_400)">
			<path id="Vector" d="M75.4209 10.6807L76.9077 10.6807L76.9077 16.964L75.4209 16.964L75.4209 10.6807ZM75.2529 8.74731C75.2529 8.24731 75.6406 7.90283 76.1699 7.90283C76.7017 7.90283 77.0869 8.25 77.0869 8.74731C77.0869 9.2334 76.7002 9.58057 76.1685 9.58057C75.6362 9.58057 75.25 9.2334 75.25 8.74731L75.2529 8.74731ZM79.0298 11.8445L78.124 11.8445L78.124 10.7445L79.1084 10.6807L79.2905 8.96399L80.5308 8.96399L80.5308 10.6807L82.1465 10.6807L82.1465 11.8445L80.5308 11.8445L80.5308 14.839C80.5308 15.5806 80.8135 15.939 81.4224 15.939C81.644 15.939 81.9014 15.875 82.0835 15.8L82.3423 16.8861C81.9922 17.0015 81.5527 17.1167 81.0488 17.1167C79.5747 17.1167 79.0327 16.1945 79.0327 14.839L79.0327 11.8445L79.0298 11.8445ZM88.729 15.9139C89.6616 15.9139 90.23 15.0806 90.23 13.8279C90.23 12.5612 89.6616 11.7306 88.729 11.7306C87.7983 11.7306 87.2451 12.5612 87.2451 13.8279C87.2451 15.082 87.7983 15.9139 88.729 15.9139ZM88.729 10.525C90.3198 10.525 91.7559 11.7292 91.7559 13.8279C91.7559 15.9139 90.3198 17.1195 88.729 17.1195C87.1514 17.1195 85.7192 15.9139 85.7192 13.8279C85.7192 11.7306 87.1514 10.5265 88.729 10.5265L88.729 10.525ZM93.2329 10.6807L94.4609 10.6807L94.5645 11.525L94.6147 11.525C95.1846 10.9751 95.833 10.525 96.6982 10.525C98.0562 10.525 98.6494 11.4348 98.6494 13.0222L98.6494 16.964L97.1626 16.964L97.1626 13.214C97.1626 12.1764 96.8687 11.7946 96.1689 11.7946C95.6118 11.7946 95.2505 12.0612 94.7183 12.5723L94.7183 16.964L93.2344 16.964L93.2344 10.6807L93.2329 10.6807Z" fill="#E7E7E7" fill-opacity="1.000000" fill-rule="evenodd"/>
		</g>
		<mask id="mask6_404" mask-type="alpha" maskUnits="userSpaceOnUse" x="51.502930" y="7.902832" width="104.918945" height="37.222168">
			<path id="Vector" d="M51.5029 7.90283L156.422 7.90283L156.422 45.125L51.5029 45.125L51.5029 7.90283Z" fill="#FFFFFF" fill-opacity="1.000000" fill-rule="nonzero"/>
		</mask>
		<g mask="url(#mask6_404)">
			<path id="Vector" d="M127.498 29.7529C126.442 29.7529 125.678 30.0446 125.207 30.6237C124.734 31.2015 124.492 32.1238 124.479 33.3877L124.479 33.7349C124.479 35.1709 124.721 36.1987 125.207 36.821C125.689 37.4404 126.466 37.7515 127.537 37.7515C128.431 37.7515 129.133 37.3904 129.637 36.675C130.146 35.9612 130.397 34.9724 130.397 33.7139C130.397 32.439 130.146 31.4584 129.636 30.7765C129.132 30.0931 128.418 29.7515 127.497 29.7515L127.498 29.7529ZM127.725 39.0474C127.05 39.0474 126.437 38.925 125.88 38.6792C125.32 38.4312 124.836 38.0396 124.48 37.5444L124.364 37.5444C124.44 38.1418 124.479 38.7085 124.479 39.2432L124.479 43.457L122.913 43.457L122.913 28.6251L124.187 28.6251L124.403 30.0251L124.479 30.0251C124.881 29.464 125.349 29.0626 125.887 28.8112C126.464 28.5543 127.092 28.4272 127.725 28.439C129.097 28.439 130.155 28.9015 130.903 29.8279C131.645 30.7556 132.018 32.0598 132.018 33.7349C132.018 35.4153 131.639 36.7209 130.883 37.6514C130.123 38.582 129.072 39.0474 127.725 39.0474ZM135.646 38.8613L134.078 38.8613L134.078 24.3279L135.646 24.3279L135.646 38.8613ZM141.115 37.7695C142.09 37.7695 142.857 37.5056 143.411 36.9778C143.968 36.446 144.247 35.7043 144.247 34.7515L144.247 33.8306L142.678 33.8945C141.432 33.939 140.536 34.1306 139.987 34.4695C139.436 34.8083 139.162 35.3389 139.162 36.053C139.162 36.6125 139.33 37.0391 139.675 37.3306C140.019 37.625 140.497 37.7695 141.115 37.7695ZM144.651 38.8625L144.343 37.407L144.266 37.407C143.748 38.05 143.234 38.4834 142.72 38.7085C142.209 38.9348 141.568 39.0488 140.802 39.0488C139.776 39.0488 138.973 38.7876 138.39 38.2654C137.808 37.7432 137.517 37.0015 137.517 36.0334C137.517 33.9668 139.186 32.8806 142.528 32.7834L144.283 32.7278L144.283 32.0889C144.283 31.2889 144.108 30.6946 143.758 30.3112C143.408 29.9293 142.848 29.7375 142.082 29.7375C141.221 29.7375 140.248 30.0015 139.16 30.5223L138.677 29.3348C139.187 29.0626 139.745 28.8488 140.352 28.6904C140.949 28.5366 141.563 28.4587 142.18 28.4584C143.412 28.4584 144.325 28.7279 144.92 29.2709C145.513 29.8126 145.812 30.6793 145.812 31.8751L145.812 38.8613L144.649 38.8613L144.651 38.8625ZM146.723 28.6251L148.403 28.6251L150.668 34.4639C151.162 35.7974 151.473 36.7585 151.592 37.3501L151.667 37.3501C151.75 37.0308 151.918 36.489 152.185 35.7183C152.443 34.9502 153.296 32.5835 154.742 28.6237L156.422 28.6237L151.98 40.2808C151.538 41.4333 151.024 42.25 150.435 42.7334C149.846 43.2168 149.124 43.4556 148.27 43.4556C147.791 43.4556 147.318 43.4001 146.853 43.2959L146.853 42.053C147.199 42.1306 147.587 42.1667 148.015 42.1667C149.089 42.1667 149.856 41.5667 150.315 40.375L150.895 38.9167L146.723 28.621L146.723 28.6251ZM97.7983 35.0139C98.2969 34.5195 98.3403 33.8389 98.3403 33.4514C98.3403 31.9098 97.4092 29.5112 95.6147 29.5112C95.0518 29.5112 94.4453 29.7917 94.0996 30.2195C93.7314 30.6682 93.6235 31.2473 93.6235 31.8029C93.6235 33.2375 94.4692 35.6167 96.3286 35.6167C96.877 35.6035 97.4009 35.3887 97.7983 35.0139ZM97.1729 39.0835C97.0005 39.0613 96.8926 39.0613 96.6772 39.0613C96.481 39.0613 95.312 39.1028 94.4048 39.4084C93.9287 39.5752 92.543 40.0918 92.543 41.6099C92.543 43.1279 94.0381 44.2209 96.3511 44.2209C98.4287 44.2209 99.5317 43.2375 99.5317 41.9099C99.5317 40.8154 98.8179 40.239 97.1743 39.0835L97.1729 39.0835ZM98.7085 29.5765C99.2085 29.9821 100.244 30.8403 100.244 32.4653C100.244 34.0515 99.3345 34.8015 98.4287 35.5071C98.1484 35.782 97.8208 36.0876 97.8208 36.5583C97.8208 37.0278 98.147 37.2849 98.3853 37.4778L99.165 38.0752C100.117 38.8708 100.981 39.5974 100.981 41.0752C100.981 43.0889 99.0098 45.1238 95.291 45.1238C92.1553 45.1238 90.6431 43.6431 90.6431 42.0598C90.6431 41.2876 91.0283 40.1987 92.3091 39.446C93.6475 38.6321 95.4663 38.5264 96.439 38.4597C96.1338 38.0764 95.7896 37.6682 95.7896 37.0085C95.7896 36.6404 95.8975 36.425 96.0054 36.1682C95.7671 36.1904 95.5293 36.2097 95.312 36.2097C93.022 36.2097 91.7241 34.5181 91.7241 32.8486C91.7241 31.8654 92.1777 30.7723 93.1069 29.9807C94.3394 28.9751 95.8091 28.8029 96.981 28.8029L101.437 28.8029L100.051 29.5737L98.71 29.5737L98.7085 29.5765ZM87.7886 37.0098C88.3066 36.3264 88.4365 35.4683 88.4365 34.6348C88.4365 32.7542 87.5337 29.1626 84.8525 29.1626C84.1416 29.1626 83.4287 29.4404 82.9111 29.8904C82.0708 30.6404 81.917 31.5807 81.917 32.5015C81.917 34.6167 82.9756 38.1016 85.5894 38.1016C86.4292 38.1016 87.2974 37.6946 87.79 37.0112L87.7886 37.0098ZM85.0923 38.7446C81.6592 38.7446 79.8237 36.0918 79.8237 33.696C79.8237 30.8973 82.1338 28.5015 85.417 28.5015C88.5908 28.5015 90.5786 30.9598 90.5786 33.5488C90.5786 36.071 88.6133 38.7432 85.0908 38.7432L85.0923 38.7446ZM76.0845 37.0098C76.6025 36.3264 76.7314 35.4683 76.7314 34.6348C76.7314 32.7542 75.8242 29.1626 73.1475 29.1626C72.4336 29.1626 71.7192 29.4404 71.2041 29.8904C70.3584 30.6404 70.21 31.5807 70.21 32.5015C70.21 34.6167 71.2671 38.1016 73.8809 38.1016C74.7236 38.1016 75.5859 37.6946 76.0845 37.0112L76.0845 37.0098ZM73.3853 38.7446C69.9497 38.7446 68.1128 36.0918 68.1128 33.696C68.1128 30.8973 70.4258 28.5015 73.709 28.5015C76.8838 28.5015 78.8706 30.9598 78.8706 33.5488C78.8706 36.071 76.9062 38.7432 73.3867 38.7432L73.3853 38.7446ZM66.4624 38.407L63.3599 39.1155C62.0957 39.3098 60.9658 39.4792 59.7759 39.4792C53.7842 39.4792 51.502 35.1182 51.502 31.7015C51.502 27.5306 54.7358 23.6626 60.2744 23.6626C61.3965 23.6646 62.5137 23.8159 63.5952 24.1125C65.2246 24.5654 65.9849 25.1237 66.4609 25.4459L64.6592 27.1432L63.9004 27.3154L64.4434 26.4542C63.7046 25.746 62.3574 24.4348 59.7954 24.4348C56.3657 24.4348 53.7827 27.0182 53.7827 30.7778C53.7827 34.8167 56.7324 38.6223 61.4658 38.6223C62.8574 38.6223 63.5728 38.3403 64.2236 38.0835L64.2236 34.625L60.9478 34.7959L62.6836 33.8682L67.2871 33.8682L66.7212 34.4099C66.5674 34.5376 66.5464 34.5793 66.5044 34.7529C66.4819 34.9446 66.4595 35.5696 66.4595 35.7808L66.4595 38.4058L66.4624 38.407Z" fill="#FFFFFF" fill-opacity="1.000000" fill-rule="evenodd"/>
		</g>
		<mask id="mask6_408" mask-type="alpha" maskUnits="userSpaceOnUse" x="51.502930" y="7.902832" width="104.918945" height="37.222168">
			<path id="Vector" d="M51.5029 7.90283L156.422 7.90283L156.422 45.125L51.5029 45.125L51.5029 7.90283Z" fill="#FFFFFF" fill-opacity="1.000000" fill-rule="nonzero"/>
		</mask>
		<g mask="url(#mask6_408)">
			<path id="Vector" d="M105.571 37.7874C104.854 37.7222 104.703 37.5957 104.703 36.7542L104.703 24.5902L104.717 24.4513C104.804 23.6986 105.02 23.5708 105.697 23.1819L102.589 23.1819L100.959 23.9597L102.619 23.9597L102.619 37.2263C102.619 37.657 102.535 37.7222 102.033 38.3652L105.876 38.3652L106.681 37.8972C106.312 37.8499 105.942 37.8306 105.572 37.7861L105.571 37.7874ZM112.379 31.6207C112.79 31.4735 113.004 31.343 113.004 31.0471C113.004 30.1943 112.034 29.2111 110.869 29.2111C110.005 29.2111 108.391 29.8735 108.391 32.1792C108.391 32.5403 108.433 32.925 108.457 33.3083L112.376 31.6194L112.379 31.6207ZM114.409 37.9846C114.171 38.1096 113.933 38.2625 113.698 38.3667C112.984 38.6902 112.25 38.7734 111.602 38.7734C110.917 38.7734 109.835 38.729 108.736 37.9402C107.205 36.8735 106.539 35.0374 106.539 33.436C106.539 30.1263 109.257 28.5055 111.476 28.5055C112.252 28.5055 113.05 28.7 113.7 29.1027C114.775 29.8069 115.055 30.7235 115.206 31.2166L110.141 33.2444L108.479 33.3735C109.018 36.0818 110.873 37.6624 112.921 37.6624C114.021 37.6624 114.819 37.2778 115.553 36.9165L114.411 37.9861L114.409 37.9846ZM116.488 28.6527L116.488 30.061L116.314 30.061L116.314 28.6527L115.844 28.6527L115.844 28.5068L116.96 28.5068L116.96 28.6527L116.488 28.6527ZM118.427 30.061L118.427 28.6388L118.423 28.6388L117.982 30.061L117.846 30.061L117.404 28.6403L117.4 28.6403L117.4 30.0625L117.24 30.0625L117.24 28.5068L117.51 28.5068L117.911 29.7653L117.914 29.7653L118.308 28.5083L118.58 28.5083L118.58 30.0638L118.426 30.0638L118.427 30.061Z" fill="#FFFFFF" fill-opacity="1.000000" fill-rule="evenodd"/>
		</g>
	</g>
</svg>
