<svg width="1079.201660" height="536.677979" viewBox="0 0 1079.2 536.678" fill="none" xmlns="http://www.w3.org/2000/svg" xmlns:xlink="http://www.w3.org/1999/xlink">
	<desc>
			Created with Pixso.
	</desc>
	<defs/>
	<rect id="Rectangle" width="35.343216" height="33.495380" transform="translate(114.776855 455.396851) rotate(-21.015757)" fill="#FFFFFF" fill-opacity="0"/>
	<path id="Rectangle 2" d="M117.94 457.16C127.76 449.41 135.07 446.6 147.17 445.92C153.17 454.66 155.6 462.11 157.52 472.85C148.17 479.54 140.18 481.72 128.28 484.08C121.36 475.27 118.94 467.81 117.94 457.16Z" fill="#D9D9D9" fill-opacity="1.000000" fill-rule="nonzero"/>
	<path id="Rectangle 2" d="M157.52 472.85C155.6 462.11 153.17 454.66 147.17 445.92C135.07 446.6 127.76 449.41 117.94 457.16C118.94 467.81 121.36 475.27 128.28 484.08C140.18 481.72 148.17 479.54 157.52 472.85ZM156.42 472.4Q153.62 457.32 146.66 446.96Q138.11 447.5 132.06 449.82Q125.99 452.15 118.99 457.61Q120.17 469.11 125.48 478.2Q126.93 480.68 128.69 482.98Q138.17 481.07 143.51 479.15Q150.24 476.72 156.42 472.4Z" fill="#000000" fill-opacity="1.000000" fill-rule="evenodd"/>
	<path id="Rectangle 3" d="M827.4 330.62C845.36 334.02 855.53 339.31 868.08 351.81C864.5 366.52 858.81 376.14 849.07 388.29C832.72 384.41 822.56 377.79 808.39 367.1C811.17 351.32 816.86 341.69 827.4 330.62Z" fill="#D9D9D9" fill-opacity="1.000000" fill-rule="nonzero"/>
	<path id="Rectangle 3" d="M849.07 388.29C858.81 376.14 864.5 366.52 868.08 351.81C855.53 339.31 845.36 334.02 827.4 330.62C816.86 341.69 811.17 351.32 808.39 367.1C822.56 377.79 832.72 384.41 849.07 388.29ZM848.69 387.17Q862.55 369.7 866.97 352.12Q857.88 343.16 849.31 338.69Q840.72 334.21 827.75 331.7Q819.91 340.02 815.87 347.57Q811.48 355.74 809.48 366.67Q820.99 375.32 828.39 379.37Q837.76 384.5 848.69 387.17Z" fill="#000000" fill-opacity="1.000000" fill-rule="evenodd"/>
	<path id="Vector 26" d="M1077.71 534.43L48.05 534.43C48.05 534.43 18.84 454.24 67.93 441.68C117.02 429.12 175.01 437.99 225.15 392.4C263.37 357.65 261 312.69 295.99 273.57C341.07 223.15 400.14 242.79 435.8 182.99C458.32 145.22 433.26 92.93 468.11 71.4C498.75 52.47 521.31 92.89 555.73 88.06C609.47 80.53 618.52 -2.58 672.55 1.11C745.86 6.11 724.84 123.4 777.57 182.99C804.76 213.72 830.57 217.87 854 252.55C884.83 298.19 870.29 343.74 897.5 392.4C943.88 475.38 1019.3 392.4 1077.71 534.43Z" fill="#D9D9D9" fill-opacity="1.000000" fill-rule="nonzero"/>
	<path id="Vector 26" d="M1077.71 534.43L48.05 534.43C48.05 534.43 18.84 454.24 67.93 441.68C117.02 429.12 175.01 437.99 225.15 392.4C263.37 357.65 261 312.69 295.99 273.57C341.07 223.15 400.14 242.79 435.8 182.99C458.32 145.22 433.26 92.93 468.11 71.4C498.75 52.47 521.31 92.89 555.73 88.06C609.47 80.53 618.52 -2.58 672.55 1.11C745.86 6.11 724.84 123.4 777.57 182.99C804.76 213.72 830.57 217.87 854 252.55C884.83 298.19 870.29 343.74 897.5 392.4C943.88 475.38 1019.3 392.4 1077.71 534.43Z" fill="#A7CDB8" fill-opacity="1.000000" fill-rule="nonzero"/>
	<path id="Vector 26" d="M1077.71 534.43C1019.3 392.4 943.88 475.38 897.5 392.4C870.29 343.74 884.83 298.19 854 252.55C830.57 217.87 804.76 213.72 777.57 182.99C724.84 123.4 745.86 6.11 672.55 1.11C618.52 -2.58 609.47 80.53 555.73 88.06C521.31 92.89 498.75 52.47 468.11 71.4C433.26 92.93 458.32 145.22 435.8 182.99C400.14 242.79 341.07 223.15 295.99 273.57C261 312.69 263.37 357.65 225.15 392.4C175.01 437.99 117.02 429.12 67.93 441.68C18.84 454.24 48.05 534.43 48.05 534.43C56.99 534.43 738.21 534.43 1077.71 534.43Z" stroke="#658B76" stroke-opacity="1.000000" stroke-width="2.000000"/>
	<path id="Vector 19" d="M607.06 513.05C566.65 529.21 570.38 534.81 570.38 534.81L616.75 534.81C616.75 534.81 617.01 522.38 613.28 513.05C612.37 510.8 607.06 513.05 607.06 513.05Z" fill="#262421" fill-opacity="1.000000" fill-rule="nonzero"/>
	<path id="Vector 19" d="M607.06 513.05C607.06 513.05 612.37 510.8 613.28 513.05C617.01 522.38 616.75 534.81 616.75 534.81L570.38 534.81C570.38 534.81 566.65 529.21 607.06 513.05Z" stroke="#000000" stroke-opacity="1.000000" stroke-width="2.000000"/>
	<path id="Vector 21" d="M606.44 516.4C606.23 508.32 605.57 491.53 604.57 489.04L613.9 487.18C613.48 495.68 612.65 513.42 612.65 516.4C612.65 519.38 608.51 517.64 606.44 516.4Z" fill="#D9D9D9" fill-opacity="1.000000" fill-rule="nonzero"/>
	<path id="Vector 21" d="M606.44 516.4C608.51 517.64 612.65 519.38 612.65 516.4C612.65 513.42 613.48 495.68 613.9 487.18L604.57 489.04C605.57 491.53 606.23 508.32 606.44 516.4Z" stroke="#000000" stroke-opacity="1.000000" stroke-width="2.000000"/>
	<path id="Vector 20" d="M669.32 513.43C628.91 529.59 632.64 535.19 632.64 535.19L680.16 535.19C680.16 535.19 679.27 522.76 675.54 513.43C674.64 511.18 669.32 513.43 669.32 513.43Z" fill="#262421" fill-opacity="1.000000" fill-rule="nonzero"/>
	<path id="Vector 20" d="M669.32 513.43C669.32 513.43 674.64 511.18 675.54 513.43C679.27 522.76 680.16 535.19 680.16 535.19L632.64 535.19C632.64 535.19 628.91 529.59 669.32 513.43Z" stroke="#000000" stroke-opacity="1.000000" stroke-width="2.000000"/>
	<path id="Vector 22" d="M665.5 516.4C665.29 508.32 664.63 491.53 663.64 489.04L672.96 487.18C672.55 495.68 671.72 513.42 671.72 516.4C671.72 519.38 667.57 517.64 665.5 516.4Z" fill="#D9D9D9" fill-opacity="1.000000" fill-rule="nonzero"/>
	<path id="Vector 22" d="M665.5 516.4C667.57 517.64 671.72 519.38 671.72 516.4C671.72 513.42 672.55 495.68 672.96 487.18L663.64 489.04C664.63 491.53 665.29 508.32 665.5 516.4Z" stroke="#000000" stroke-opacity="1.000000" stroke-width="2.000000"/>
	<path id="Vector 18" d="M597.11 489.04C592.55 450.29 583.43 315.21 583.43 313.72L659.28 321.18C664.67 357.03 675.57 487.55 676.07 494.02C676.57 500.48 660.11 496.71 651.82 494.02L623.84 360.97C621.57 382.52 616.76 484.57 615.76 491.53C614.77 498.49 602.91 492.77 597.11 489.04Z" fill="#427B7E" fill-opacity="1.000000" fill-rule="nonzero"/>
	<path id="Vector 18" d="M619.49 337.34L623.84 360.97L651.82 494.02C660.11 496.71 676.57 500.48 676.07 494.02C675.57 487.55 664.67 357.03 659.28 321.18L583.43 313.72C583.43 315.21 592.55 450.29 597.11 489.04C602.91 492.77 614.77 498.49 615.76 491.53C616.76 484.57 621.57 382.52 623.84 360.97" stroke="#000000" stroke-opacity="1.000000" stroke-width="2.000000"/>
	<path id="Vector 11" d="M590.27 187.51L590.27 190.62C590.27 190.62 572.23 187.95 561.67 185.64C551.11 183.34 536.18 178.8 536.18 178.8L537.43 175.69C537.43 175.69 553.84 177.74 564.16 180.05C574.48 182.35 590.27 187.51 590.27 187.51Z" fill="#D9D9D9" fill-opacity="1.000000" fill-rule="nonzero"/>
	<path id="Vector 11" d="M590.27 187.51C590.27 187.51 574.48 182.35 564.16 180.05C553.84 177.74 537.43 175.69 537.43 175.69L536.18 178.8C536.18 178.8 551.11 183.34 561.67 185.64C572.23 187.95 590.27 190.62 590.27 190.62L590.27 187.51Z" stroke="#000000" stroke-opacity="1.000000" stroke-width="2.000000"/>
	<path id="Vector 10" d="M567.27 184.4C565.82 182.74 565.04 179.49 562.29 179.43C559.29 179.35 557.13 183.27 557.7 186.26C557.02 185.77 555.09 185.64 554.21 185.64C553.38 188.54 553.47 192.11 552.97 193.1C552.47 194.1 553.18 197.25 553.59 198.7C554.09 198.7 564.16 204.09 569.13 206.78C570.38 205.54 574.73 199.94 575.97 194.35C576.94 189.99 576.42 184.55 573.49 179.43C571.27 175.55 569.23 172.91 565.4 171.34C560.82 169.47 551.65 170.79 552.35 175.69C552.97 180.05 558.74 178.34 560.43 178.18C567.27 177.56 567.89 183.16 567.89 183.16L567.89 185.01C567.65 184.8 567.44 184.6 567.27 184.4Z" fill="#FFFFFF" fill-opacity="1.000000" fill-rule="nonzero"/>
	<path id="Vector 10" d="M565.4 196.21C565.4 196.21 566.03 192.76 562.92 189.99C561.53 188.77 559.76 189.54 558.56 188.13C558.12 187.6 557.84 186.96 557.7 186.26C557.13 183.27 559.29 179.35 562.29 179.43C565.04 179.49 565.82 182.74 567.27 184.4C567.44 184.6 567.65 184.8 567.89 185.01C569.65 186.52 572.86 188.13 572.86 188.13M567.89 185.01L567.89 183.16C567.89 183.16 567.27 177.56 560.43 178.18C558.74 178.34 552.97 180.05 552.35 175.69C551.65 170.79 560.82 169.47 565.4 171.34C569.23 172.91 571.27 175.55 573.49 179.43C576.42 184.55 576.94 189.99 575.97 194.35C574.73 199.94 570.38 205.54 569.13 206.78C564.16 204.09 554.09 198.7 553.59 198.7C553.18 197.25 552.47 194.1 552.97 193.1C553.47 192.11 553.38 188.54 554.21 185.64C555.09 185.64 557.02 185.77 557.7 186.26M563.54 180.67C563.54 180.67 564.77 182.47 564.78 183.78C564.79 185.41 562.92 187.51 562.92 187.51L561.05 186.89C561.05 186.89 563.54 183.16 563.54 180.67Z" stroke="#000000" stroke-opacity="1.000000" stroke-width="2.000000"/>
	<path id="Vector 9" d="M512.56 186.26C500.43 182.86 497.64 166.99 498.88 157.04C498.88 157.04 503.92 162.93 510.69 162.02C517.5 161.1 520.64 151.45 530.59 154.56C538.76 157.11 538.54 168.48 537.51 173.83C537.41 174.36 537.3 174.84 537.19 175.23C537.06 175.71 536.92 176.08 536.8 176.32C536.68 176.57 536.48 176.91 536.22 177.32C535.58 178.32 534.53 179.71 533.07 181.14C529.17 184.96 522.33 189.01 512.56 186.26Z" fill="#823600" fill-opacity="1.000000" fill-rule="nonzero"/>
	<path id="Vector 9" d="M512.56 186.26C522.33 189.01 529.17 184.96 533.07 181.14C534.53 179.71 535.58 178.32 536.22 177.32C536.48 176.91 536.68 176.57 536.8 176.32C536.92 176.08 537.06 175.71 537.19 175.23C537.3 174.84 537.41 174.36 537.51 173.83C538.54 168.48 538.76 157.11 530.59 154.56C520.64 151.45 517.5 161.1 510.69 162.02C503.92 162.93 498.88 157.04 498.88 157.04C497.64 166.99 500.43 182.86 512.56 186.26ZM536.22 177.32L526.23 181.29M536.8 176.32C532.04 175.9 522.63 175.07 523.13 175.07M537.19 175.23C536.88 175.11 531.42 172.59 528.72 171.34M537.51 173.83C537.56 173.58 534.16 169.58 532.45 167.61" stroke="#000000" stroke-opacity="1.000000" stroke-width="2.000000"/>
	<path id="Vector 8" d="M572.86 245.95C577.84 228.54 594.75 198.08 597.73 195.59L587.78 249.68C582.23 260.14 578.39 273.53 574.1 283.87C570.23 293.19 566 300.04 559.81 300.04C553.61 300.04 547.46 290.69 542.9 280.77C540.61 275.77 538.72 270.63 537.43 266.47C531.31 246.79 541.49 220.46 547.19 207.4C548.81 203.69 550.07 201.04 550.48 199.94C551.02 198.5 552.95 198.54 555.46 199.38C556.78 199.82 558.27 200.48 559.81 201.27C561.25 202.01 562.73 202.85 564.16 203.72C565.02 204.24 565.85 204.77 566.65 205.28C567.79 206.03 568.85 206.76 569.76 207.4C570 209.65 570.21 211.93 570.41 214.24C571.3 224.5 571.85 235.29 572.86 245.95Z" fill="#FD9F49" fill-opacity="1.000000" fill-rule="nonzero"/>
	<path id="Vector 8" d="M573.49 259.01C573.49 250.3 572.86 245.95 572.86 245.95C571.85 235.29 571.3 224.5 570.41 214.24C570.21 211.93 570 209.65 569.76 207.4C568.85 206.76 567.79 206.03 566.65 205.28C565.85 204.77 565.02 204.24 564.16 203.72C562.73 202.85 561.25 202.01 559.81 201.27C558.27 200.48 556.78 199.82 555.46 199.38C552.95 198.54 551.02 198.5 550.48 199.94C550.07 201.04 548.81 203.69 547.19 207.4C541.49 220.46 531.31 246.79 537.43 266.47C538.72 270.63 540.61 275.77 542.9 280.77C547.46 290.69 553.61 300.04 559.81 300.04C566 300.04 570.23 293.19 574.1 283.87C578.39 273.53 582.23 260.14 587.78 249.68L597.73 195.59C594.75 198.08 577.84 228.54 572.86 245.95M547.19 207.4C547.19 207.4 548.67 207.4 551.4 207.87C553.11 208.16 555.31 208.63 557.94 209.41C559.52 209.87 561.24 210.44 563.11 211.13C564.24 211.55 565.42 212.02 566.65 212.54C567.86 213.06 569.11 213.62 570.41 214.24M555.46 199.38L551.4 207.87M559.81 201.27L557.94 209.41M564.16 203.72L563.11 211.13M566.65 205.28L566.65 212.54" stroke="#000000" stroke-opacity="1.000000" stroke-width="2.000000"/>
	<path id="Vector 12" d="M559.81 300.04C553.6 300.04 547.46 290.69 542.9 280.77C544.99 280.27 552.14 278.9 555.46 278.28C555.46 278.28 554.62 289.95 559.81 291.34C565.28 292.8 569.76 280.77 569.76 280.77L574.1 283.87C570.23 293.19 566 300.04 559.81 300.04Z" fill="#262421" fill-opacity="1.000000" fill-rule="nonzero"/>
	<path id="Vector 12" d="M559.81 300.04C566 300.04 570.23 293.19 574.1 283.87L569.76 280.77C569.76 280.77 565.28 292.8 559.81 291.34C554.62 289.95 555.46 278.28 555.46 278.28C552.14 278.9 544.99 280.27 542.9 280.77C547.46 290.69 553.6 300.04 559.81 300.04Z" stroke="#000000" stroke-opacity="1.000000" stroke-width="2.000000"/>
	<path id="Vector 5" d="M598.35 195.59C612.03 188.75 623.84 188.75 641.88 188.75L658.32 311.23L659.91 323.04C655.97 323.47 652.15 323.84 648.42 324.13C642.96 324.54 637.7 324.78 632.55 324.77C628.14 324.76 623.8 324.56 619.49 324.13C615.14 323.69 610.8 323.01 606.44 322.05C606.43 322.04 606.42 322.04 606.41 322.04C601.71 321 596.98 319.63 592.14 317.85C588.88 316.66 585.57 315.29 582.19 313.72C582.19 309.28 582.25 304.93 582.36 300.66C583.48 258.86 589.89 224.92 598.35 195.59Z" fill="#FD9F49" fill-opacity="1.000000" fill-rule="nonzero"/>
	<path id="Vector 5" d="M641.88 188.75L658.32 311.23L659.91 323.04C655.97 323.47 652.15 323.84 648.42 324.13C642.96 324.54 637.7 324.78 632.55 324.77C628.14 324.76 623.8 324.56 619.49 324.13C615.14 323.69 610.8 323.01 606.44 322.05C601.73 321.01 596.99 319.63 592.14 317.85C588.88 316.66 585.57 315.29 582.19 313.72C582.19 309.28 582.25 304.93 582.36 300.66C583.48 258.86 589.89 224.92 598.35 195.59C612.03 188.75 623.84 188.75 641.88 188.75ZM582.36 300.66C582.36 300.66 586.38 302.19 592.14 304.12C595.44 305.22 599.31 306.45 603.33 307.59C604.36 307.88 605.4 308.17 606.44 308.45C610.94 309.65 615.49 310.67 619.49 311.23C623.41 311.78 627.96 312.03 632.55 312.12C637.31 312.2 642.09 312.1 646.23 311.94C653.2 311.67 658.32 311.23 658.32 311.23M592.14 304.12L592.14 317.85M619.49 311.23C619.49 315.53 619.49 324.13 619.49 324.13M606.44 308.45C605.4 312.77 603.95 321.53 606.44 322.05M632.55 312.12C631.51 316.34 630.06 324.79 632.55 324.77M646.23 311.94L648.42 324.13" stroke="#000000" stroke-opacity="1.000000" stroke-width="2.000000"/>
	<path id="Vector 6" d="M612.03 190.62C612.03 190.62 612.86 180.25 613.28 174.45L621.36 169.48C621.77 175.9 622.6 189.37 622.6 189.37L631.31 188.75C631.31 188.75 631.31 203.05 618.25 203.67C608.29 204.15 604.57 193.1 604.57 193.1L612.03 190.62Z" fill="#FFFFFF" fill-opacity="1.000000" fill-rule="nonzero"/>
	<path id="Vector 6" d="M612.03 190.62L604.57 193.1C604.57 193.1 608.29 204.15 618.25 203.67C631.31 203.05 631.31 188.75 631.31 188.75L622.6 189.37C622.6 189.37 621.77 175.9 621.36 169.48L613.28 174.45C612.86 180.25 612.03 190.62 612.03 190.62Z" stroke="#000000" stroke-opacity="1.000000" stroke-width="2.000000"/>
	<path id="Vector 7" d="M601.46 194.35C601.46 194.35 604.36 193.52 605.19 193.1C605.19 193.1 605.57 194.8 606.59 196.83C607.16 197.96 607.92 199.19 608.92 200.29C609.97 201.43 611.27 202.44 612.88 203.05C613.92 203.44 615.08 203.67 616.38 203.67C616.81 203.67 617.23 203.66 617.63 203.64C619.54 203.56 621.18 203.26 622.6 202.81C624.08 202.35 625.31 201.72 626.33 200.98C627.98 199.79 629.09 198.33 629.85 196.83C631.83 192.91 631.31 188.75 631.31 188.75L637.52 188.75C637.22 190.69 636.91 192.57 636.54 194.35C636.09 196.49 635.56 198.49 634.81 200.29C633.75 202.87 632.28 205.05 630.06 206.68C630.06 206.71 630.05 206.72 630.03 206.71C628.54 207.79 626.72 208.63 624.47 209.17C624.39 209.31 624.31 209.32 624.22 209.23C622.34 209.66 620.16 209.89 617.63 209.89C614.54 209.89 612.03 209.16 609.99 208.02C607.95 206.88 606.39 205.33 605.19 203.67C603.99 202.01 603.16 200.24 602.59 198.7C602.5 198.7 602.5 198.67 602.56 198.61C601.69 196.19 601.46 194.35 601.46 194.35Z" fill="#FD9F49" fill-opacity="1.000000" fill-rule="nonzero"/>
	<path id="Vector 7" d="M605.19 193.1C605.19 193.1 605.57 194.8 606.59 196.83C607.16 197.96 607.92 199.19 608.92 200.29C609.97 201.43 611.27 202.44 612.88 203.05C613.92 203.44 615.08 203.67 616.38 203.67C616.81 203.67 617.23 203.66 617.63 203.64C619.54 203.56 621.18 203.26 622.6 202.81C624.08 202.35 625.31 201.72 626.33 200.98C627.98 199.79 629.09 198.33 629.85 196.83C631.83 192.91 631.31 188.75 631.31 188.75L637.52 188.75C637.22 190.69 636.91 192.57 636.54 194.35C636.09 196.49 635.56 198.49 634.81 200.29C633.75 202.87 632.28 205.05 630.06 206.68C628.57 207.78 626.74 208.63 624.47 209.17C622.53 209.64 620.27 209.89 617.63 209.89C614.54 209.89 612.03 209.16 609.99 208.02C607.95 206.88 606.39 205.33 605.19 203.67C603.99 202.01 603.16 200.24 602.59 198.7C601.69 196.24 601.46 194.35 601.46 194.35C601.46 194.35 604.36 193.52 605.19 193.1ZM606.59 196.83C605.01 197.46 602 198.7 602.59 198.7M608.92 200.29C607.68 201.42 605.19 203.67 605.19 203.67M612.88 203.05L609.99 208.02M617.63 203.64L617.63 209.89M622.6 202.81C623.02 205.32 623.97 210.09 624.47 209.17M626.33 200.98C626.95 201.19 630.06 207.2 630.06 206.68M629.85 196.83L634.81 200.29M631.31 193.1C631.8 193.1 635 193.93 636.54 194.35" stroke="#000000" stroke-opacity="1.000000" stroke-width="2.000000"/>
	<path id="Vector 16" d="M774.3 238.49C771.4 247.4 764.6 266.47 760.62 271.44C757.14 275.8 741.75 288.7 719.59 287.69C710.12 287.26 699.42 284.29 687.88 277.04C682.01 273.34 676.86 269.24 672.34 264.84C657.69 250.57 649.59 233.06 644.36 215.49L641.25 188.75C641.25 188.75 673.58 221.7 691.61 228.54C709.64 235.38 740.11 229.54 742.59 228.54C745.08 227.55 764.77 234.76 774.3 238.49Z" fill="#FD9F49" fill-opacity="1.000000" fill-rule="nonzero"/>
	<path id="Vector 16" d="M774.3 238.49C764.77 234.76 745.08 227.55 742.59 228.54C740.11 229.54 709.64 235.38 691.61 228.54C673.58 221.7 641.25 188.75 641.25 188.75L644.36 215.49C649.59 233.06 657.69 250.57 672.34 264.84C676.86 269.24 682.01 273.34 687.88 277.04C699.42 284.29 710.12 287.26 719.59 287.69C741.75 288.7 757.14 275.8 760.62 271.44C764.6 266.47 771.4 247.4 774.3 238.49Z" stroke="#000000" stroke-opacity="1.000000" stroke-width="2.000000"/>
	<path id="Vector 17" d="M687.88 277.04C682.01 273.34 676.86 269.24 672.34 264.84C673.58 263.36 676.07 256.52 677.94 257.14C679.43 257.64 694.72 273.31 722.08 278.9L719.59 287.69C710.12 287.26 699.42 284.29 687.88 277.04Z" fill="#262421" fill-opacity="1.000000" fill-rule="nonzero"/>
	<path id="Vector 17" d="M687.88 277.04C699.42 284.29 710.12 287.26 719.59 287.69L722.08 278.9C694.72 273.31 679.43 257.64 677.94 257.14C676.07 256.52 673.58 263.36 672.34 264.84C676.86 269.24 682.01 273.34 687.88 277.04Z" stroke="#000000" stroke-opacity="1.000000" stroke-width="2.000000"/>
	<mask id="mask_13_37" fill="white">
		<path id="Pallete" d="M724.036 260.535C692.949 242.505 691.084 212.662 691.084 212.662C691.084 212.662 689.564 191.545 699.167 181.576C709.052 171.312 722.289 170.094 734.605 162.924C751.289 153.211 754.027 136.722 772.53 131.216C793.574 124.954 811.198 126.871 827.864 141.164C848.651 158.991 846.308 211.211 835.324 225.718C824.341 240.225 814.186 252.998 797.399 260.535C766.935 274.213 737.714 268.468 724.036 260.535ZM730.849 226.076C736.618 225.188 740.28 217.866 739.027 209.721C737.774 201.576 732.081 195.692 726.312 196.58C720.542 197.467 716.881 204.789 718.134 212.934C719.387 221.08 725.079 226.963 730.849 226.076Z" clip-rule="evenodd" fill="" fill-opacity="1.000000" fill-rule="evenodd"/>
	</mask>
	<path id="Pallete" d="M724.036 260.535C692.949 242.505 691.084 212.662 691.084 212.662C691.084 212.662 689.564 191.545 699.167 181.576C709.052 171.312 722.289 170.094 734.605 162.924C751.289 153.211 754.027 136.722 772.53 131.216C793.574 124.954 811.198 126.871 827.864 141.164C848.651 158.991 846.308 211.211 835.324 225.718C824.341 240.225 814.186 252.998 797.399 260.535C766.935 274.213 737.714 268.468 724.036 260.535ZM730.849 226.076C736.618 225.188 740.28 217.866 739.027 209.721C737.774 201.576 732.081 195.692 726.312 196.58C720.542 197.467 716.881 204.789 718.134 212.934C719.387 221.08 725.079 226.963 730.849 226.076Z" clip-rule="evenodd" fill="#EFA67E" fill-opacity="1.000000" fill-rule="evenodd" mask="url(#mask_13_37)"/>
	<path id="Pallete" d="M723.534 261.4Q703.826 249.969 694.99 230.246Q690.564 220.366 690.086 212.724Q689.7 207.356 690.532 200.733Q692.214 187.352 698.446 180.882Q704.74 174.347 720.082 168.393Q729.504 164.736 734.102 162.06Q741.294 157.873 750.297 147.032Q755.973 140.199 759.398 137.271Q765.123 132.377 772.245 130.258Q788.763 125.342 801.999 127.495Q816.143 129.795 828.515 140.405Q843.328 153.108 844.508 184.649Q844.991 197.586 842.696 209.089Q840.38 220.697 836.122 226.322Q825.785 239.974 819.241 246.451Q809.306 256.285 797.809 261.447Q776.772 270.892 754.366 269.637Q735.959 268.607 723.534 261.4ZM724.537 259.67Q736.549 266.637 754.478 267.641Q776.398 268.868 796.99 259.623Q808.156 254.609 817.834 245.03Q824.276 238.653 834.527 225.115Q838.509 219.856 840.735 208.698Q842.984 197.425 842.509 184.723Q841.362 154.057 827.213 141.923Q815.268 131.679 801.678 129.469Q788.894 127.39 772.815 132.175Q766.1 134.173 760.697 138.791Q757.402 141.608 751.835 148.31Q742.606 159.423 735.108 163.788Q730.375 166.544 720.806 170.258Q705.875 176.052 699.887 182.27Q694.116 188.261 692.517 200.982Q691.709 207.41 692.082 212.6Q692.537 219.879 696.815 229.428Q705.387 248.563 724.537 259.67ZM730.697 225.087Q734.513 224.5 736.677 220.172Q738.93 215.667 738.038 209.873Q737.147 204.079 733.644 200.458Q730.28 196.981 726.464 197.568Q722.648 198.155 720.484 202.483Q718.231 206.988 719.122 212.782Q720.013 218.577 723.516 222.197Q726.881 225.674 730.697 225.087ZM731.001 227.064Q726.163 227.808 722.079 223.588Q718.134 219.51 717.145 213.087Q716.157 206.663 718.695 201.588Q721.322 196.336 726.16 195.591Q730.998 194.847 735.082 199.068Q739.027 203.145 740.015 209.569Q741.003 215.992 738.466 221.067Q735.839 226.32 731.001 227.064Z" fill="#000000" fill-opacity="1.000000" fill-rule="nonzero"/>
	<path id="Vector 15" d="M732.03 213.62C727.57 215.84 723.32 222.95 723.32 222.95C723.32 222.95 724.74 224.23 725.81 224.81C727.36 225.65 730.16 226.05 730.16 226.05L734.51 224.19C734.51 224.19 738.29 231.17 742.6 232.89C745.7 234.14 751.3 227.92 748.81 224.19C746.22 220.3 738.86 216.11 738.86 216.11L738.86 211.75C738.86 211.75 734.5 212.39 732.03 213.62Z" fill="#FFFFFF" fill-opacity="1.000000" fill-rule="nonzero"/>
	<path id="Vector 15" d="M732.03 213.62C734.5 212.39 738.86 211.75 738.86 211.75L738.86 216.11C738.86 216.11 746.22 220.3 748.81 224.19C751.3 227.92 745.7 234.14 742.6 232.89C738.29 231.17 734.51 224.19 734.51 224.19L730.16 226.05C730.16 226.05 727.36 225.65 725.81 224.81C724.74 224.23 723.32 222.95 723.32 222.95C723.32 222.95 727.57 215.84 732.03 213.62ZM743.84 223.57C744.87 223.57 747.36 223.57 746.95 224.81C746.68 225.62 745.31 225.75 744.46 226.68C743.35 227.88 742.68 229.78 741.97 229.78C740.73 229.78 740.73 227.3 740.73 227.3C741.35 225.43 741.97 224.19 743.84 223.57Z" stroke="#000000" stroke-opacity="1.000000" stroke-width="2.000000"/>
	<path id="Ellipse 3" d="M767.46 147.72C760.94 147.72 755.65 153.28 755.65 160.15C755.65 160.15 755.03 162.64 755.65 167.61C755.82 168.98 756.17 171.68 758.14 172.59C759.46 173.2 760.48 172.16 761.87 172.59C764.33 173.35 763.71 176.98 766.22 177.56C769.8 178.39 771.55 171.96 773.06 171.11C774.57 170.25 775.89 169.05 776.92 167.61C778.4 165.53 779.28 162.95 779.28 160.15C779.28 153.28 773.99 147.72 767.46 147.72Z" fill="#FF4646" fill-opacity="1.000000" fill-rule="nonzero"/>
	<path id="Ellipse 3" d="M755.65 160.15C755.65 160.15 755.03 162.64 755.65 167.61C755.82 168.98 756.17 171.68 758.14 172.59C758.83 172.91 759.44 172.77 760.07 172.63C760.63 172.51 761.21 172.38 761.87 172.59C764.33 173.35 763.71 176.98 766.22 177.56C768.61 178.11 770.18 175.43 771.41 173.34C772.03 172.29 772.56 171.39 773.06 171.11C774.57 170.25 775.89 169.05 776.92 167.61C778.4 165.53 779.28 162.95 779.28 160.15C779.28 153.28 773.99 147.72 767.46 147.72C760.94 147.72 755.65 153.28 755.65 160.15ZM764.08 150.33Q765.65 149.72 767.46 149.72Q769.28 149.72 770.85 150.33Q772.79 151.07 774.37 152.74Q775.67 154.1 776.38 155.73Q777.28 157.74 777.28 160.15Q777.28 162.14 776.64 163.89Q776.15 165.24 775.29 166.45Q774.43 167.65 773.33 168.52Q772.74 168.99 772.07 169.37Q771.1 169.92 769.69 172.32Q767.63 175.83 766.67 175.61Q766.38 175.54 765.84 174.3Q764.59 171.41 762.58 170.72Q762.52 170.69 762.46 170.68Q761.29 170.31 759.64 170.68Q759.06 170.81 758.98 170.77Q758.01 170.32 757.64 167.36Q757.06 162.76 757.59 160.64L757.65 160.4L757.65 160.15Q757.65 157.74 758.54 155.73Q759.26 154.1 760.56 152.74Q762.14 151.07 764.08 150.33Z" fill="#000000" fill-opacity="1.000000" fill-rule="evenodd"/>
	<path id="Ellipse 4" d="M802.28 147.72C795.76 147.72 790.47 153.28 790.47 160.15C790.47 161.68 790.73 163.15 791.21 164.5C791.21 164.5 791.29 168.82 792.95 170.72C793.75 171.63 795.44 171.37 795.44 172.59C795.44 175.69 795.44 181.91 799.17 182.53C804.12 183.36 804.15 175.69 806.01 171.95C810.71 170.31 814.09 165.65 814.09 160.15C814.09 153.28 808.8 147.72 802.28 147.72Z" fill="#FFCE22" fill-opacity="1.000000" fill-rule="nonzero"/>
	<path id="Ellipse 4" d="M806.01 171.95C810.71 170.31 814.09 165.65 814.09 160.15C814.09 153.28 808.8 147.72 802.28 147.72C795.76 147.72 790.47 153.28 790.47 160.15C790.47 161.68 790.73 163.15 791.21 164.5C791.21 164.5 791.29 168.82 792.95 170.72C793.75 171.63 795.44 171.37 795.44 172.59C795.44 175.69 795.44 181.91 799.17 182.53C802.7 183.12 803.72 179.39 804.7 175.85C805.09 174.42 805.48 173.03 806.01 171.95ZM798.89 150.33Q800.47 149.72 802.28 149.72Q804.09 149.72 805.67 150.33Q807.6 151.07 809.18 152.74Q810.48 154.1 811.2 155.73Q812.09 157.74 812.09 160.15Q812.09 164.24 810.12 166.81Q808.44 168.98 805.35 170.07Q804.98 170.19 804.69 170.45Q804.4 170.71 804.22 171.06Q803.6 172.31 802.77 175.32Q801.34 180.51 799.71 180.57Q799.61 180.58 799.5 180.56Q799.44 180.55 799.38 180.53Q797.44 179.99 797.44 172.59Q797.44 171.9 797.18 171.35Q796.62 170.18 794.91 169.56Q794.57 169.44 794.45 169.38L794.46 169.4Q793.28 168.06 793.21 164.47L793.21 164.46L793.2 164.14L793.1 163.83Q792.88 163.22 792.74 162.59Q792.47 161.4 792.47 160.15Q792.47 157.74 793.36 155.73Q794.08 154.1 795.38 152.74Q796.96 151.07 798.89 150.33Z" fill="#000000" fill-opacity="1.000000" fill-rule="evenodd"/>
	<path id="Ellipse 5" d="M818.45 182.53C811.92 182.53 806.63 188.1 806.63 194.97C806.63 194.97 806.37 200.75 807.25 204.29C807.88 206.78 809.12 207.4 810.36 207.4C811.61 207.4 813.01 205.87 814.09 205.54C815.72 205.03 816.58 204.92 817.2 206.16C817.82 207.4 817.2 208.02 817.82 209.89C818.45 211.75 820.09 214.08 822.18 214.24C824.07 214.39 825.91 212.38 825.91 209.27C825.91 206.16 826.13 205.76 826.88 203.67C827.77 201.19 830.26 198.36 830.26 194.97C830.26 188.1 824.97 182.53 818.45 182.53Z" fill="#00BEA7" fill-opacity="1.000000" fill-rule="nonzero"/>
	<path id="Ellipse 5" d="M818.45 182.53C811.92 182.53 806.63 188.1 806.63 194.97C806.63 194.97 806.37 200.75 807.25 204.29C807.88 206.78 809.12 207.4 810.36 207.4C811.61 207.4 813.01 205.87 814.09 205.54C815.72 205.03 816.58 204.92 817.2 206.16C817.51 206.78 817.51 207.25 817.51 207.79C817.51 208.34 817.51 208.96 817.82 209.89C818.45 211.75 820.09 214.08 822.18 214.24C824.07 214.39 825.91 212.38 825.91 209.27C825.91 206.16 826.13 205.76 826.88 203.67C827.77 201.19 830.26 198.36 830.26 194.97C830.26 188.1 824.97 182.53 818.45 182.53ZM815.06 185.14Q816.63 184.53 818.45 184.53Q820.26 184.53 821.83 185.14Q823.77 185.89 825.35 187.55Q826.65 188.92 827.37 190.54Q828.26 192.56 828.26 194.97Q828.26 196.71 826.41 200.09Q825.35 202.02 825 203Q824.95 203.14 824.85 203.41Q823.91 206.03 823.91 209.27Q823.91 210.83 823.19 211.73Q822.76 212.26 822.35 212.25Q822.34 212.25 822.33 212.25Q822.16 212.23 822 212.19Q820.58 211.83 819.72 209.26Q819.51 208.63 819.51 207.79Q819.51 206.31 818.99 205.26Q818.49 204.26 817.68 203.76Q816.14 202.8 813.5 203.63Q812.78 203.85 811.53 204.7Q810.49 205.4 810.36 205.4Q810.28 205.4 810.2 205.38Q809.55 205.23 809.19 203.81Q808.38 200.55 808.63 195.06L808.63 195.01L808.63 194.97Q808.63 192.56 809.53 190.54Q810.24 188.92 811.54 187.55Q813.12 185.89 815.06 185.14Z" fill="#000000" fill-opacity="1.000000" fill-rule="evenodd"/>
	<path id="Ellipse 6" d="M807.25 217.35C800.73 217.35 795.44 222.92 795.44 229.78C795.44 230.42 795.49 231.04 795.57 231.65C795.53 235.38 795.22 240.03 797.93 243.46C799.17 245.04 800.2 246.42 802.28 246.57C804.12 246.71 805.48 246.08 806.63 245.33C807.73 244.61 808.37 243.63 809.12 242.84C810.2 241.7 811.38 241.45 811.61 241.35C815.98 239.52 819.07 235.03 819.07 229.78C819.07 222.92 813.78 217.35 807.25 217.35Z" fill="#6D00C4" fill-opacity="1.000000" fill-rule="nonzero"/>
	<path id="Ellipse 6" d="M795.57 231.65C795.57 231.94 795.57 232.23 795.56 232.53C795.5 236.09 795.43 240.29 797.93 243.46C799.17 245.04 800.2 246.42 802.28 246.57C804.12 246.71 805.48 246.08 806.63 245.33C807.73 244.61 808.37 243.63 809.12 242.84C810.2 241.7 811.38 241.45 811.61 241.35C815.98 239.52 819.07 235.03 819.07 229.78C819.07 222.92 813.78 217.35 807.25 217.35C800.73 217.35 795.44 222.92 795.44 229.78C795.44 230.42 795.49 231.04 795.57 231.65ZM803.87 219.96Q805.44 219.35 807.25 219.35Q809.07 219.35 810.64 219.96Q812.58 220.71 814.16 222.37Q815.46 223.74 816.17 225.36Q817.07 227.37 817.07 229.78Q817.07 233.65 815.23 236.18Q813.69 238.31 810.84 239.5L810.82 239.51Q809.29 240.01 808.17 240.99Q807.91 241.21 807.67 241.47Q807.42 241.73 806.98 242.25Q806.08 243.3 805.54 243.65Q803.99 244.67 802.5 244.58Q802.46 244.58 802.43 244.58Q801.29 244.49 799.61 242.37Q799.54 242.27 799.5 242.22Q797.44 239.61 797.56 232.56Q797.57 231.97 797.57 231.67L797.58 231.52L797.55 231.37Q797.44 230.58 797.44 229.78Q797.44 227.37 798.33 225.36Q799.05 223.74 800.35 222.37Q801.93 220.71 803.87 219.96Z" fill="#000000" fill-opacity="1.000000" fill-rule="evenodd"/>
	<path id="Ellipse 7" d="M787.98 240.98C787.98 234.11 782.69 228.54 776.17 228.54C770.66 228.54 766.04 232.5 764.73 237.87C763.57 240.35 764.21 243.88 763.73 247.19C763.11 251.55 763.35 254.25 763.73 256.07C764.36 259.01 766.22 261.49 769.33 261.49C771.57 261.49 773.06 259.63 773.68 257.76C774.07 256.61 773.69 256.4 775.55 255.28C777.63 254.01 779.9 255.69 781.76 255.9C783.63 256.1 784.45 254.82 785.49 253.41C786.96 251.44 787.36 247.19 787.36 247.19C787.36 247.19 787.98 243.24 787.98 240.98Z" fill="#FFFFFF" fill-opacity="1.000000" fill-rule="nonzero"/>
	<path id="Ellipse 7" d="M764.03 240.98C763.97 241.75 763.96 242.56 763.95 243.38C763.93 244.64 763.91 245.93 763.73 247.19C763.11 251.55 763.35 254.25 763.73 256.07C764.36 259.01 766.22 261.49 769.33 261.49C771.57 261.49 773.06 259.63 773.68 257.76C774.07 256.61 773.69 256.4 775.55 255.28C776.97 254.41 778.48 254.92 779.89 255.4C780.54 255.62 781.17 255.83 781.76 255.9C783.52 256.09 784.35 254.96 785.31 253.66C785.37 253.57 785.43 253.49 785.49 253.41C786.96 251.44 787.36 247.19 787.36 247.19C787.36 247.19 787.98 243.24 787.98 240.98C787.98 234.11 782.69 228.54 776.17 228.54C770.66 228.54 766.04 232.5 764.73 237.87C764.3 238.78 764.12 239.84 764.03 240.98ZM766.07 240.98Q765.97 242.01 765.95 243.41Q765.91 246.09 765.71 247.48Q765.01 252.43 765.69 255.66Q766.26 258.33 767.8 259.14Q768.47 259.49 769.33 259.49Q769.71 259.49 770.05 259.37Q771.18 258.95 771.78 257.13Q771.84 256.97 771.9 256.69Q771.92 256.62 771.93 256.56Q772.4 254.84 774.51 253.56Q774.52 253.56 774.53 253.56Q776.74 252.22 780.53 253.5Q781.61 253.87 781.98 253.91Q782.59 253.98 783.7 252.47Q783.82 252.3 783.89 252.22Q785.02 250.7 785.37 247L785.37 246.94L785.38 246.88Q785.98 243.08 785.98 240.98Q785.98 238.57 785.09 236.55Q784.37 234.93 783.07 233.56Q781.49 231.9 779.56 231.15Q777.98 230.54 776.17 230.54Q774.64 230.54 773.27 230.99Q771.6 231.53 770.15 232.73Q769.01 233.68 768.2 234.86Q767.14 236.4 766.67 238.34Q766.59 238.65 766.54 238.97Q766.36 239.96 766.36 240.98L766.07 240.98Z" fill="#000000" fill-opacity="1.000000" fill-rule="evenodd"/>
	<path id="Vector 1" d="M611.06 174.7C596.82 172.32 597.73 157.29 599.6 143.86C599.93 141.48 600.16 139.11 600.33 136.77C600.33 136.77 597.8 139.74 595.87 139.26C593.44 138.66 595.39 128.76 595.87 122.85C596.37 116.63 595.52 109.79 597.11 109.79C599.09 109.79 600.56 113.52 600.56 113.52L600.55 113.22C600.44 107.46 600.34 102.34 600.84 98.23C601.78 90.52 607.06 79.64 622.6 81.19C641.25 83.06 640.28 98.23 640.28 98.23C640.28 98.23 638.89 105.65 637.23 116.01C637.23 116.01 639.88 111.25 643.12 111.66C647.43 112.2 648.09 115.96 648.09 119.74C648.09 124.71 645.61 132.17 643.74 135.9C642.86 137.66 640.63 139.67 638.15 139.26C634.41 138.64 634.66 133.42 634.66 133.42C634.36 135.68 634.07 137.97 633.79 140.26C631.31 161.02 624.47 176.94 611.06 174.7Z" fill="#FFFFFF" fill-opacity="1.000000" fill-rule="nonzero"/>
	<path id="Vector 1" d="M611.06 174.7C624.47 176.94 631.31 161.02 633.79 140.26C634.07 137.97 634.36 135.68 634.66 133.42C635.49 127.25 636.39 121.25 637.23 116.01C638.89 105.65 640.28 98.23 640.28 98.23C640.28 98.23 641.25 83.06 622.6 81.19C607.06 79.64 601.78 90.52 600.84 98.23C600.33 102.41 600.44 107.64 600.56 113.52C600.67 119.25 600.78 130.19 600.33 136.77C600.16 139.11 599.93 141.48 599.6 143.86C597.73 157.29 596.82 172.32 611.06 174.7ZM637.23 116.01C637.23 116.01 639.88 111.25 643.12 111.66C647.43 112.2 648.09 115.96 648.09 119.74C648.09 124.71 645.61 132.17 643.74 135.9C642.86 137.66 640.63 139.67 638.15 139.26C634.41 138.64 634.66 133.42 634.66 133.42M600.56 113.52C600.56 113.52 599.09 109.79 597.11 109.79C595.52 109.79 596.37 116.63 595.87 122.85C595.39 128.76 593.44 138.66 595.87 139.26C597.8 139.74 600.33 136.77 600.33 136.77" stroke="#000000" stroke-opacity="1.000000" stroke-width="2.000000"/>
	<path id="Vector 2" d="M607.68 140.26C605.82 146.47 605.82 160.15 610.79 160.77C617.63 161.39 620.12 147.72 619.49 141.5" stroke="#000000" stroke-opacity="1.000000" stroke-width="2.000000"/>
	<path id="Ellipse 1" d="M610.94 121.82C610.55 127.99 610.85 133.03 608.37 132.87C605.89 132.71 606.83 127.75 607.22 121.59C607.62 115.42 607.32 110.38 609.8 110.54C612.28 110.7 611.34 115.66 610.94 121.82Z" fill="#000000" fill-opacity="1.000000" fill-rule="nonzero"/>
	<path id="Vector 4" d="M595.87 90.52C599.81 88.03 607.81 83.06 608.3 83.06C608.92 83.06 643.12 84.3 644.36 84.3C645.06 84.3 646.81 90.99 648.29 97.36C648.93 100.09 649.52 102.76 649.96 104.82C651.41 111.66 647.81 111.66 644.36 111.66C641.25 111.66 637.94 111.45 637.52 115.39C637.11 119.33 636.15 126.7 635.66 124.71C635.39 123.63 634.47 120.81 633.79 117.25C633.47 115.52 633.2 113.62 633.1 111.66C633.02 110.22 633.03 108.76 633.17 107.31C633.29 106.05 633.53 104.62 633.79 103.17C634.62 98.69 635.79 94 635.04 93.63C634.04 93.13 613.07 91.35 602.71 90.52L602.71 101.09L602.71 107.87C602.75 107.95 602.75 107.97 602.71 107.93C602.71 107.93 600.84 120.61 600.84 119.12C600.84 117.63 600.43 113.94 600.22 112.28C600.01 110.62 598.51 109.12 597.11 109.79C596.32 110.17 595.87 111.66 595.87 111.66C595.45 111.24 594.41 111.08 593.34 107.31C593.15 106.61 592.95 105.79 592.76 104.82C592.48 103.42 592.48 101.94 592.65 100.47C592.89 98.47 593.43 96.52 594.01 94.87C594.9 92.32 595.87 90.52 595.87 90.52Z" fill="#823600" fill-opacity="1.000000" fill-rule="nonzero"/>
	<path id="Vector 4" d="M608.3 83.06C608.92 83.06 643.12 84.3 644.36 84.3C645.06 84.3 646.81 90.99 648.29 97.36C648.93 100.09 649.52 102.76 649.96 104.82C651.41 111.66 647.81 111.66 644.36 111.66C641.25 111.66 637.94 111.45 637.52 115.39C637.11 119.33 636.15 126.7 635.66 124.71C635.39 123.63 634.47 120.81 633.79 117.25C633.47 115.52 633.2 113.62 633.1 111.66C633.02 110.22 633.03 108.76 633.17 107.31C633.29 106.05 633.53 104.62 633.79 103.17C634.62 98.69 635.79 94 635.04 93.63C634.04 93.13 613.07 91.35 602.71 90.52L602.71 101.09L602.71 107.93C602.71 107.93 600.84 120.61 600.84 119.12C600.84 117.63 600.43 113.94 600.22 112.28C600.01 110.62 598.51 109.12 597.11 109.79C596.32 110.17 595.87 111.66 595.87 111.66C595.45 111.24 594.41 111.08 593.34 107.31C593.15 106.61 592.95 105.79 592.76 104.82C592.48 103.42 592.48 101.94 592.65 100.47C592.89 98.47 593.43 96.52 594.01 94.87C594.9 92.32 595.87 90.52 595.87 90.52C599.81 88.03 607.81 83.06 608.3 83.06ZM593.34 107.31L597.11 109.79M633.79 117.25L637.52 115.39M633.79 103.17C633.79 103.17 637.52 100.26 641.04 100.26C645.68 100.26 648.29 97.36 648.29 97.36M633.1 111.66C633.45 111.03 637.52 107.31 642.5 107.5C647.47 107.7 647.96 105.51 649.96 104.82M594.01 94.87C594.8 95.13 595.36 97.36 597.79 97.36C600.22 97.36 601.99 100.73 602.71 101.09M592.65 100.47C592.95 100.73 594.01 103.87 597.11 103.87C600.22 103.87 603.06 108.28 602.71 107.93" stroke="#000000" stroke-opacity="1.000000" stroke-width="2.000000"/>
	<path id="Ellipse 2" d="M622.14 121.82C621.74 127.99 622.04 133.03 619.56 132.87C617.08 132.71 618.02 127.75 618.41 121.59C618.81 115.42 618.51 110.38 620.99 110.54C623.47 110.7 622.53 115.66 622.14 121.82Z" fill="#000000" fill-opacity="1.000000" fill-rule="nonzero"/>
	<path id="Vector 3" d="M630.06 71.24C630.06 71.24 623.84 65.03 621.36 61.3C618.87 57.57 617.96 53.36 620.74 51.97C623.22 50.73 628.2 56.94 629.44 60.05C630.68 63.16 630.06 71.24 630.06 71.24ZM585.92 71.24C584.06 77.46 585.94 85.95 593.38 91.76C599.93 96.87 611.41 98.6 617.01 98.6C633.17 98.6 642.19 96.74 648.71 93C653.07 90.52 655.55 86.79 654.31 82.44C653.28 78.85 650.58 76.22 645.61 75.6C639.56 74.84 630.06 76.84 630.06 76.84C630.06 76.84 619.49 63.78 603.95 61.3C596.76 60.15 588.23 63.54 585.92 71.24Z" fill="#000000" fill-opacity="1.000000" fill-rule="evenodd"/>
	<path id="Vector 3" d="M593.38 91.76C599.93 96.87 611.41 98.6 617.01 98.6C633.17 98.6 642.19 96.74 648.71 93C653.07 90.52 655.55 86.79 654.31 82.44C653.28 78.85 650.58 76.22 645.61 75.6C639.56 74.84 630.06 76.84 630.06 76.84C630.06 76.84 619.49 63.78 603.95 61.3C596.76 60.15 588.23 63.54 585.92 71.24C584.06 77.46 585.94 85.95 593.38 91.76ZM621.36 61.3C618.87 57.57 617.96 53.36 620.74 51.97C623.22 50.73 628.2 56.94 629.44 60.05C630.68 63.16 630.06 71.24 630.06 71.24C630.06 71.24 623.84 65.03 621.36 61.3Z" stroke="#000000" stroke-opacity="1.000000" stroke-width="2.000000"/>
	<path id="Vector 24" d="M539.91 534.86L477.12 117.3L375.78 166.39L426.14 534.86L452.25 534.86L428.62 385.39L492.66 378.59L518.77 534.86L539.91 534.86Z" fill="#9B7221" fill-opacity="1.000000" fill-rule="nonzero"/>
	<path id="Vector 24" d="M539.91 534.86L518.77 534.86L492.66 378.59L428.62 385.39L452.25 534.86L426.14 534.86L375.78 166.39L477.12 117.3L539.91 534.86Z" stroke="#000000" stroke-opacity="1.000000" stroke-width="2.000000"/>
	<path id="Vector 25" d="M539.91 534.86L477.12 117.3L485.25 120.7C505.47 254.72 547.79 534.86 547.79 534.86L539.91 534.86Z" fill="#D8AA53" fill-opacity="1.000000" fill-rule="nonzero"/>
	<path id="Vector 25" d="M539.91 534.86L547.79 534.86C547.79 534.86 505.47 254.72 485.25 120.7L477.12 117.3L539.91 534.86Z" stroke="#000000" stroke-opacity="1.000000" stroke-width="2.000000"/>
	<mask id="mask_13_56" fill="white">
		<path id="Exclude" d="M298.066 535.678L370.808 161.859L469.662 113.527L477.745 116.925C459.093 234.987 407.49 535.678 407.49 535.678L386.973 535.678L412.464 383.13L341.587 392.947C335.162 436.496 317.961 535.678 317.961 535.678L298.066 535.678ZM380.756 178.473L344.696 371.802L413.085 361.229C413.085 361.229 437.954 214.219 450.389 149.021L380.756 178.473Z" clip-rule="evenodd" fill="" fill-opacity="1.000000" fill-rule="evenodd"/>
	</mask>
	<path id="Exclude" d="M298.066 535.678L370.808 161.859L469.662 113.527L477.745 116.925C459.093 234.987 407.49 535.678 407.49 535.678L386.973 535.678L412.464 383.13L341.587 392.947C335.162 436.496 317.961 535.678 317.961 535.678L298.066 535.678ZM380.756 178.473L344.696 371.802L413.085 361.229C413.085 361.229 437.954 214.219 450.389 149.021L380.756 178.473Z" clip-rule="evenodd" fill="#D8AA53" fill-opacity="1.000000" fill-rule="evenodd" mask="url(#mask_13_56)"/>
	<path id="Exclude" d="M297.085 535.487L369.922 161.179L469.631 112.429L478.86 116.309L448.003 303.264L408.334 536.678L385.792 536.678L411.477 382.965L412.464 383.13L412.601 384.12L341.724 393.938L341.587 392.947L342.576 393.093Q336.165 436.554 318.947 535.847L318.947 535.849L318.803 536.678L296.853 536.678L297.085 535.487ZM299.048 535.869L298.066 535.678L298.066 534.678L317.961 534.678L317.961 535.678L316.976 535.507L316.976 535.505Q334.19 436.238 340.598 392.801L340.707 392.059L413.674 381.952L387.959 535.843L386.973 535.678L386.973 534.678L407.49 534.678L407.49 535.678L406.504 535.51L446.03 302.938L476.758 116.762L477.745 116.925L477.357 117.847L469.275 114.449L469.662 113.527L470.102 114.425L371.247 162.757L370.808 161.859L371.79 162.05L299.048 535.869ZM381.739 178.656L345.679 371.985L344.696 371.802L344.543 370.813L412.932 360.241L413.085 361.229L412.099 361.062Q436.973 214.035 449.406 148.833L450.389 149.021L450.778 149.942L381.145 179.394L380.756 178.473L381.739 178.656ZM379.871 177.761L451.721 147.371L451.371 149.208Q438.939 214.39 414.071 361.396L413.951 362.107L343.454 373.006L379.773 178.29L379.871 177.761Z" fill="#000000" fill-opacity="1.000000" fill-rule="nonzero"/>
	<path id="Vector" d="M712.27 34.54C725.94 35.23 733.99 38.17 744.48 46.28C743.19 57.73 739.85 65.57 733.74 75.74C721.23 74.52 713.06 70.59 701.53 64C702.13 51.83 705.47 43.98 712.27 34.54ZM347.98 90.75C359.42 83.23 367.65 80.83 380.9 81.18C386.63 91.18 388.57 99.48 389.65 111.29C378.83 117.7 369.92 119.36 356.74 120.86C350.02 110.68 348.08 102.38 347.98 90.75ZM295.49 242.8C305.27 233.23 312.89 229.31 325.96 227.11C333.5 235.83 336.99 243.6 340.32 254.99C330.92 263.35 322.49 266.68 309.84 270.68C301.3 261.98 297.81 254.2 295.49 242.8ZM247.81 253.52C252.22 247.47 255.96 244.66 262.81 242.29C267.66 246.3 270.25 250.17 273.08 256C268.78 261.36 264.54 263.93 258.09 267.23C252.69 263.32 250.1 259.45 247.81 253.52ZM836.63 270.52C839 271.7 840.18 272.86 841.33 275.16C840.09 277.16 838.8 278.34 836.82 279.73C834.69 278.54 833.59 277.19 832.11 275.09C833.29 272.9 834.58 271.72 836.63 270.52ZM816.32 279.16C820.38 281.03 822.34 282.97 824.17 286.9C821.83 290.5 819.48 292.68 815.89 295.28C812.28 293.37 810.45 291.09 808.05 287.54C810.3 283.61 812.65 281.44 816.32 279.16ZM837.7 295.75C839.28 296.54 840.07 297.31 840.83 298.84C840.01 300.18 839.15 300.96 837.83 301.89C836.41 301.1 835.67 300.2 834.69 298.8C835.48 297.34 836.33 296.55 837.7 295.75ZM750.9 315.99C758.47 313.79 763.43 313.79 770.74 315.99C771.49 318.91 771.82 321.5 771.82 324.1C771.82 326.94 771.42 329.8 770.74 333.13C763.69 334.84 758.47 334.35 750.9 333.13C749.89 330.05 749.43 327.37 749.43 324.74C749.43 321.92 749.96 319.15 750.9 315.99ZM196.24 335.89C203.39 333.68 208.07 333.68 214.98 335.89C215.68 338.81 215.99 341.4 215.99 343.99C215.99 346.84 215.62 349.7 214.98 353.02C208.32 354.73 203.39 354.24 196.24 353.02C195.29 349.94 194.86 347.27 194.86 344.63C194.86 341.82 195.35 339.05 196.24 335.89ZM875.05 357.99C888.72 358.68 896.77 361.62 907.26 369.73C905.97 381.18 902.63 389.02 896.52 399.19C884.01 397.97 875.84 394.04 864.32 387.45C864.91 375.27 868.25 367.43 875.05 357.99ZM221.69 380.12C239.38 366.17 252.53 361.12 274.31 359.9C285.12 375.62 289.48 389.04 292.93 408.37C276.1 420.4 261.72 424.34 240.31 428.59C227.85 412.72 223.49 399.29 221.69 380.12ZM992.82 393.12C999.49 392.6 1003.58 393.5 1009.2 396.71C1009.21 397.03 1009.21 397.34 1009.21 397.65C1009.21 402.7 1008.12 406.48 1005.98 411.39C999.83 411.58 995.62 410.22 989.6 407.8C989.51 406.85 989.47 405.95 989.47 405.08C989.47 400.66 990.6 397.23 992.82 393.12ZM701.11 399.19C703.24 397.61 704.81 397.09 707.39 397.11C708.6 399.12 709.07 400.8 709.41 403.21C707.38 404.56 705.67 404.93 703.13 405.29C701.72 403.24 701.25 401.56 701.11 399.19ZM724.07 409.7C725.5 408.64 726.54 408.3 728.26 408.31C729.07 409.65 729.38 410.77 729.61 412.37C728.26 413.27 727.12 413.52 725.42 413.76C724.48 412.4 724.17 411.28 724.07 409.7ZM699.59 421.2C703.1 418.44 705.71 417.57 710.04 417.73C712.19 421.45 713.06 424.53 713.75 428.91C710.41 431.26 707.55 431.86 703.29 432.38C700.82 428.59 699.95 425.51 699.59 421.2ZM208.7 462.61C210.84 461.03 212.41 460.51 214.98 460.52C216.2 462.54 216.66 464.22 217 466.62C214.98 467.97 213.27 468.35 210.73 468.7C209.32 466.66 208.85 464.98 208.7 462.61ZM81.7 462.61C88.85 460.4 93.53 460.4 100.44 462.61C101.14 465.53 101.45 468.11 101.45 470.71C101.45 473.56 101.08 476.41 100.44 479.74C93.78 481.45 88.85 480.96 81.7 479.74C80.75 476.66 80.32 473.99 80.32 471.35C80.32 468.54 80.81 465.77 81.7 462.61ZM231.67 473.11C233.09 472.06 234.14 471.71 235.85 471.72C236.66 473.07 236.97 474.19 237.2 475.79C235.85 476.69 234.71 476.94 233.02 477.18C232.08 475.81 231.76 474.69 231.67 473.11ZM957.81 474C967.76 473.22 973.88 474.57 982.27 479.37C982.28 479.84 982.29 480.31 982.29 480.77C982.29 488.3 980.66 493.95 977.46 501.3C968.28 501.58 961.99 499.54 953 495.93C952.87 494.51 952.8 493.16 952.8 491.87C952.8 485.26 954.49 480.14 957.81 474ZM207.18 484.62C210.69 481.86 213.31 480.99 217.64 481.15C219.79 484.87 220.66 487.95 221.35 492.33C218 494.68 215.14 495.27 210.89 495.8C208.41 492.01 207.54 488.93 207.18 484.62ZM30.09 515.02C25.63 514.8 23.08 513.74 19.92 510.77C20.74 506.56 22.11 503.66 24.46 499.9C28.53 500.33 31.07 501.75 34.63 504.15C34.01 508.64 32.65 511.53 30.09 515.02ZM4.06 507.63C2.3 507.49 1.28 507.06 0 505.93C0.26 504.38 0.77 503.33 1.65 501.98C3.26 502.19 4.28 502.75 5.71 503.68C5.53 505.32 5.03 506.37 4.06 507.63ZM14.49 530.63C11.85 530.42 10.32 529.78 8.39 528.08C8.8 525.76 9.55 524.18 10.87 522.15C13.28 522.46 14.82 523.3 16.97 524.7C16.69 527.17 15.94 528.74 14.49 530.63Z" fill="#D9D9D9" fill-opacity="1.000000" fill-rule="evenodd"/>
	<path id="Vector" d="M744.48 46.28C733.99 38.17 725.94 35.23 712.27 34.54C705.47 43.98 702.13 51.83 701.53 64C713.06 70.59 721.23 74.52 733.74 75.74C739.85 65.57 743.19 57.73 744.48 46.28ZM742.35 47.17Q740.64 59.97 732.68 73.61Q724.92 72.71 717.99 70.02Q712.41 67.85 703.61 62.88Q703.81 60.09 704.32 57.36Q706.36 46.53 713.26 36.6Q722.5 37.18 728.88 39.51Q735.24 41.82 742.35 47.17ZM380.9 81.18C367.65 80.83 359.42 83.23 347.98 90.75C348.08 102.38 350.02 110.68 356.74 120.86C369.92 119.36 378.83 117.7 389.65 111.29C388.57 99.48 386.63 91.18 380.9 81.18ZM379.71 83.16Q385.89 94.49 387.54 110.2Q380.74 114.06 373.56 115.98Q367.79 117.53 357.74 118.73Q356.26 116.36 355.06 113.85Q350.3 103.91 350 91.82Q357.79 86.83 364.32 84.93Q370.81 83.05 379.71 83.16ZM325.18 229.28Q316.42 230.87 310.41 233.97Q304.36 237.08 297.67 243.47Q300.28 255.27 306.85 264.12Q308.51 266.35 310.42 268.39Q320.05 265.3 325.42 262.67Q332.1 259.41 338.03 254.33Q333.41 239.22 325.18 229.28ZM325.96 227.11C312.89 229.31 305.27 233.23 295.49 242.8C297.81 254.2 301.3 261.98 309.84 270.68C322.49 266.68 330.92 263.35 340.32 254.99C336.99 243.6 333.5 235.83 325.96 227.11ZM262.81 242.29C255.96 244.66 252.22 247.47 247.81 253.52C250.1 259.45 252.69 263.32 258.09 267.23C264.54 263.93 268.78 261.36 273.08 256C270.25 250.17 267.66 246.3 262.81 242.29ZM262.39 244.57Q267.16 248.83 270.7 255.72Q266.41 260.55 258.29 264.87Q257.41 264.17 256.6 263.41Q252.5 259.51 250.09 253.82Q253.13 249.92 257.05 247.33Q259.54 245.68 262.39 244.57ZM841.33 275.16C840.18 272.86 839 271.7 836.63 270.52C834.58 271.72 833.29 272.9 832.11 275.09C833.59 277.19 834.69 278.54 836.82 279.73C838.8 278.34 840.09 277.16 841.33 275.16ZM838.96 275.07Q838.67 274.64 838.33 274.26Q837.62 273.47 836.7 272.86Q835.41 273.79 834.53 274.99Q835.65 276.41 836.75 277.28Q838.06 276.22 838.96 275.07ZM824.17 286.9C822.34 282.97 820.38 281.03 816.32 279.16C812.65 281.44 810.3 283.61 808.05 287.54C810.45 291.09 812.28 293.37 815.89 295.28C819.48 292.68 821.83 290.5 824.17 286.9ZM821.85 286.75Q819.52 289.97 815.76 292.88Q813.07 291.09 810.44 287.47Q812.73 283.99 816.45 281.46Q818.55 282.61 820.07 284.28Q821.09 285.4 821.85 286.75ZM838.4 298.76Q838.38 298.74 838.36 298.72Q838.09 298.41 837.76 298.14Q837.44 298.42 837.16 298.73Q837.48 299.09 837.78 299.38Q838.12 299.07 838.4 298.76ZM834.69 298.8C835.67 300.2 836.41 301.1 837.83 301.89C839.15 300.96 840.01 300.18 840.83 298.84C840.07 297.31 839.28 296.54 837.7 295.75C836.33 296.55 835.48 297.34 834.69 298.8ZM770.74 315.99C763.43 313.79 758.47 313.79 750.9 315.99C749.96 319.15 749.43 321.92 749.43 324.74C749.43 327.37 749.89 330.05 750.9 333.13C758.47 334.35 763.69 334.84 770.74 333.13C771.42 329.8 771.82 326.94 771.82 324.1C771.82 321.5 771.49 318.91 770.74 315.99ZM769.06 317.59Q770.38 323.84 769.02 331.45Q762.23 332.78 752.45 331.34Q752.09 330.04 751.88 328.71Q751.02 323.36 752.52 317.62Q757.75 316.26 762.87 316.59Q765.99 316.78 769.06 317.59ZM214.98 335.89C208.07 333.68 203.39 333.68 196.24 335.89C195.35 339.05 194.86 341.82 194.86 344.63C194.86 347.27 195.29 349.94 196.24 353.02C203.39 354.24 208.32 354.73 214.98 353.02C215.62 349.7 215.99 346.84 215.99 343.99C215.99 341.4 215.68 338.81 214.98 335.89ZM213.28 337.47Q214.53 343.73 213.24 351.37Q206.91 352.66 197.82 351.25Q197.54 350.17 197.35 349.07Q196.4 343.49 197.89 337.49Q202.66 336.19 207.34 336.47Q210.33 336.65 213.28 337.47ZM907.26 369.73C896.77 361.62 888.72 358.68 875.05 357.99C868.25 367.43 864.91 375.27 864.32 387.45C875.84 394.04 884.01 397.97 896.52 399.19C902.63 389.02 905.97 381.18 907.26 369.73ZM905.13 370.62Q903.42 383.42 895.46 397.06Q887.7 396.15 880.77 393.47Q875.2 391.3 866.39 386.33Q866.59 383.54 867.11 380.81Q869.14 369.97 876.04 360.05Q885.28 360.63 891.67 362.96Q898.02 365.27 905.13 370.62ZM274.31 359.9C252.53 361.12 239.38 366.17 221.69 380.12C223.49 399.29 227.85 412.72 240.31 428.59C261.72 424.34 276.1 420.4 292.93 408.37C289.48 389.04 285.12 375.62 274.31 359.9ZM273.3 361.97Q280.47 372.6 284.51 383.48Q288.1 393.17 290.74 407.47Q279.69 415.18 267.66 419.52Q258.1 422.96 241.13 426.39Q232.85 415.59 228.88 404.9Q225.2 394.99 223.79 381.02Q236.33 371.28 247.18 367.11Q258 362.95 273.3 361.97ZM1009.2 396.71C1003.58 393.5 999.49 392.6 992.82 393.12C990.6 397.23 989.47 400.66 989.47 405.08C989.47 405.95 989.51 406.85 989.6 407.8C995.62 410.22 999.83 411.58 1005.98 411.39C1008.12 406.48 1009.21 402.7 1009.21 397.65C1009.21 397.34 1009.21 397.03 1009.2 396.71ZM1007.2 397.9Q1007.09 403.32 1004.65 409.4Q998.99 409.26 991.51 406.4Q991.48 405.46 991.53 404.51Q991.76 399.73 994.08 395.04Q998.43 394.87 1002.43 396Q1004.89 396.7 1007.2 397.9ZM707.39 397.11C704.81 397.09 703.24 397.61 701.11 399.19C701.25 401.56 701.72 403.24 703.13 405.29C705.67 404.93 707.38 404.56 709.41 403.21C709.07 400.8 708.6 399.12 707.39 397.11ZM706.22 399.18Q706.84 400.51 707.19 402.15Q705.92 402.73 704.15 403.09Q703.48 401.76 703.23 400.19Q704.19 399.64 705.22 399.37Q705.71 399.24 706.22 399.18ZM728.26 408.31C726.54 408.3 725.5 408.64 724.07 409.7C724.17 411.28 724.48 412.4 725.42 413.76C727.12 413.52 728.26 413.27 729.61 412.37C729.38 410.77 729.07 409.65 728.26 408.31ZM727.35 411.27Q727.23 410.83 727.08 410.44Q727.05 410.45 727.02 410.45Q726.62 410.56 726.24 410.73Q726.33 411.14 726.49 411.53Q726.95 411.41 727.35 411.27ZM710.04 417.73C705.71 417.57 703.1 418.44 699.59 421.2C699.95 425.51 700.82 428.59 703.29 432.38C707.55 431.86 710.41 431.26 713.75 428.91C713.06 424.53 712.19 421.45 710.04 417.73ZM708.86 419.73Q710.67 423.26 711.55 427.94Q708.73 429.52 704.32 430.22Q702.26 426.6 701.69 422.13Q703.67 420.79 705.85 420.19Q707.31 419.79 708.86 419.73ZM214.98 460.52C212.41 460.51 210.84 461.03 208.7 462.61C208.85 464.98 209.32 466.66 210.73 468.7C213.27 468.35 214.98 467.97 217 466.62C216.66 464.22 216.2 462.54 214.98 460.52ZM213.82 462.59Q214.43 463.92 214.79 465.57Q213.51 466.15 211.74 466.5Q211.07 465.18 210.82 463.61Q211.78 463.06 212.81 462.79Q213.31 462.66 213.82 462.59ZM100.44 462.61C93.53 460.4 88.85 460.4 81.7 462.61C80.81 465.77 80.32 468.54 80.32 471.35C80.32 473.99 80.75 476.66 81.7 479.74C88.85 480.96 93.78 481.45 100.44 479.74C101.08 476.41 101.45 473.56 101.45 470.71C101.45 468.11 101.14 465.53 100.44 462.61ZM98.74 464.19Q99.99 470.45 98.7 478.09Q92.37 479.38 83.28 477.97Q83 476.89 82.81 475.79Q81.86 470.21 83.35 464.21Q88.12 462.91 92.81 463.19Q95.79 463.37 98.74 464.19ZM235.85 471.72C234.14 471.71 233.09 472.06 231.67 473.11C231.76 474.69 232.08 475.81 233.02 477.18C234.71 476.94 235.85 476.69 237.2 475.79C236.97 474.19 236.66 473.07 235.85 471.72ZM234.94 474.69Q234.82 474.25 234.67 473.86Q234.64 473.86 234.61 473.87Q234.21 473.97 233.83 474.14Q233.93 474.56 234.08 474.94Q234.54 474.83 234.94 474.69ZM982.27 479.37C973.88 474.57 967.76 473.22 957.81 474C954.49 480.14 952.8 485.26 952.8 491.87C952.8 493.16 952.87 494.51 953 495.93C961.99 499.54 968.28 501.58 977.46 501.3C980.66 493.95 982.29 488.3 982.29 480.77C982.29 480.31 982.28 479.84 982.27 479.37ZM980.28 480.55Q980.24 489.38 976.13 499.31Q967.06 499.26 954.9 494.53Q954.8 492.67 954.9 490.83Q955.3 483.28 959.06 475.92Q966.02 475.54 972.37 477.34Q976.45 478.5 980.28 480.55ZM217.64 481.15C213.31 480.99 210.69 481.86 207.18 484.62C207.54 488.93 208.41 492.01 210.89 495.8C215.14 495.27 218 494.68 221.35 492.33C220.66 487.95 219.79 484.87 217.64 481.15ZM216.45 483.15Q218.26 486.68 219.15 491.35Q216.33 492.94 211.91 493.64Q209.85 490.02 209.29 485.55Q211.26 484.2 213.44 483.61Q214.9 483.21 216.45 483.15ZM19.92 510.77C23.08 513.74 25.63 514.8 30.09 515.02C32.65 511.53 34.01 508.64 34.63 504.15C31.07 501.75 28.53 500.33 24.46 499.9C22.11 503.66 20.74 506.56 19.92 510.77ZM22.13 510.04Q23.08 506.19 25.48 502.09Q28.65 502.74 32.44 505.11Q31.62 509.19 29.11 512.93Q26.74 512.65 24.7 511.67Q23.34 511.02 22.13 510.04ZM0 505.93C0.26 504.38 0.77 503.33 1.65 501.98C3.26 502.19 4.28 502.75 5.71 503.68C5.53 505.32 5.03 506.37 4.06 507.63C2.3 507.49 1.28 507.06 0 505.93ZM3.11 505.43Q3.31 505.05 3.44 504.67Q3.02 504.45 2.63 504.29Q2.43 504.7 2.28 505.1Q2.31 505.11 2.34 505.12Q2.71 505.31 3.11 505.43ZM8.39 528.08C10.32 529.78 11.85 530.42 14.49 530.63C15.94 528.74 16.69 527.17 16.97 524.7C14.82 523.3 13.28 522.46 10.87 522.15C9.55 524.18 8.8 525.76 8.39 528.08ZM10.63 527.28Q11.03 525.87 11.85 524.4Q13.19 524.8 14.76 525.69Q14.4 527.13 13.55 528.48Q12.47 528.26 11.51 527.79Q11.06 527.57 10.63 527.28Z" fill="#638874" fill-opacity="1.000000" fill-rule="evenodd"/>
</svg>
