<svg width="65.000000" height="65.000000" viewBox="0 0 65 65" fill="none" xmlns="http://www.w3.org/2000/svg" xmlns:xlink="http://www.w3.org/1999/xlink">
	<desc>
			Created with Pixso.
	</desc>
	<defs>
		<clipPath id="clip2_41">
			<rect id="twemoji:artist-palette" width="65.000000" height="65.000000" fill="white" fill-opacity="0"/>
		</clipPath>
	</defs>
	<rect id="twemoji:artist-palette" width="65.000000" height="65.000000" fill="#FFFFFF" fill-opacity="0"/>
	<g clip-path="url(#clip2_41)">
		<path id="Vector" d="M32.5 5.67C14.55 5.67 0 18.14 0 33.53C0 35.45 0.22 37.33 0.66 39.14C3.87 44.67 6.09 41.18 16.25 36.11C26.59 30.93 16.25 43.33 12.63 50.55C11.52 52.77 12.12 54.65 13.65 56.19C18.96 59.45 25.46 61.38 32.5 61.38C50.44 61.38 65 48.91 65 33.53C65 18.14 50.44 5.67 32.5 5.67ZM37.64 49.81C36.93 52.24 33.2 53.28 29.31 52.14C25.42 51 22.85 48.11 23.56 45.68C24.28 43.25 28 42.2 31.89 43.35C35.78 44.49 38.35 47.38 37.64 49.81Z" fill="#D99E82" fill-opacity="1.000000" fill-rule="nonzero"/>
		<path id="Vector" d="M23.47 19.86C23.47 22.85 21.04 25.27 18.05 25.27C15.06 25.27 12.63 22.85 12.63 19.86C12.63 16.86 15.06 14.44 18.05 14.44C21.04 14.44 23.47 16.86 23.47 19.86Z" fill="#5C913B" fill-opacity="1.000000" fill-rule="evenodd"/>
		<path id="Vector" d="M41.52 16.25C41.52 19.24 39.1 21.66 36.11 21.66C33.11 21.66 30.69 19.24 30.69 16.25C30.69 13.25 33.11 10.83 36.11 10.83C39.1 10.83 41.52 13.25 41.52 16.25Z" fill="#226699" fill-opacity="1.000000" fill-rule="evenodd"/>
		<path id="Vector" d="M57.77 27.08C57.77 30.07 55.35 32.5 52.36 32.5C49.36 32.5 46.94 30.07 46.94 27.08C46.94 24.09 49.36 21.66 52.36 21.66C55.35 21.66 57.77 24.09 57.77 27.08Z" fill="#DD2E44" fill-opacity="1.000000" fill-rule="evenodd"/>
		<path id="Vector" d="M55.97 43.33C55.97 46.32 53.54 48.75 50.55 48.75C47.56 48.75 45.13 46.32 45.13 43.33C45.13 40.34 47.56 37.91 50.55 37.91C53.54 37.91 55.97 40.34 55.97 43.33Z" fill="#FFCC4D" fill-opacity="1.000000" fill-rule="evenodd"/>
	</g>
</svg>
