<svg width="24.000000" height="24.000000" viewBox="0 0 24 24" fill="none" xmlns="http://www.w3.org/2000/svg" xmlns:xlink="http://www.w3.org/1999/xlink">
	<desc>
			Created with Pixso.
	</desc>
	<defs/>
	<path id="Vector" d="M12 0C5.371 0 0 5.37305 0 12C0 18.6289 5.371 24 12 24C18.626 24 24 18.6289 24 12C24 5.37305 18.626 0 12 0ZM19.177 7.02808L19.194 7.03101L12.497 13.729C12.273 13.9519 11.88 13.9519 11.656 13.7271L4.95599 7.02808L19.177 7.02808ZM4.48901 7.47705C4.48901 7.47192 4.492 7.46899 4.492 7.46899L9.04303 12.0181L4.48901 16.572L4.48901 7.47705ZM4.93701 17.0979C4.91701 17.0979 4.89799 17.0879 4.87799 17.085L9.49402 12.47L11.203 14.179C11.434 14.4121 11.746 14.5391 12.077 14.5391C12.405 14.5391 12.717 14.4121 12.948 14.179L14.601 12.5249L19.173 17.0979L4.93701 17.0979ZM19.626 16.646L15.054 12.074L19.626 7.50195L19.626 16.646Z" fill="#FFFFFF" fill-opacity="1.000000" fill-rule="nonzero"/>
</svg>
