<svg width="28.333282" height="28.000000" viewBox="0 0 28.3333 28" fill="none" xmlns="http://www.w3.org/2000/svg" xmlns:xlink="http://www.w3.org/1999/xlink">
	<desc>
			Created with Pixso.
	</desc>
	<defs>
		<clipPath id="clip6_299">
			<rect id="facebook (5) 1" width="28.333288" height="28.000000" fill="white" fill-opacity="0"/>
		</clipPath>
	</defs>
	<rect id="facebook (5) 1" width="28.333288" height="28.000000" fill="#FFFFFF" fill-opacity="0"/>
	<g clip-path="url(#clip6_299)">
		<path id="Vector" d="M4.15039 28L13.3919 28L13.3919 18.0469L10.0716 18.0469L10.0716 14.7656L13.3919 14.7656L13.3919 10.6641C13.3919 8.40234 15.2537 6.5625 17.5423 6.5625L21.6927 6.5625L21.6927 9.84375L18.3724 9.84375C17.4569 9.84375 16.7122 10.5796 16.7122 11.4844L16.7122 14.7656L21.5429 14.7656L20.9895 18.0469L16.7122 18.0469L16.7122 28L24.1829 28C26.4715 28 28.3333 26.1602 28.3333 23.8984L28.3333 4.10156C28.3333 1.83984 26.4715 0 24.1829 0L4.15039 0C1.86183 0 0 1.83984 0 4.10156L0 23.8984C0 26.1602 1.86183 28 4.15039 28ZM1.66016 4.10156C1.66016 2.74463 2.7773 1.64062 4.15039 1.64062L24.1829 1.64062C25.556 1.64062 26.6731 2.74463 26.6731 4.10156L26.6731 23.8984C26.6731 25.2554 25.556 26.3594 24.1829 26.3594L18.3724 26.3594L18.3724 19.6875L22.3959 19.6875L23.5026 13.125L18.3724 13.125L18.3724 11.4844L23.3528 11.4844L23.3528 4.92188L17.5423 4.92188C14.3383 4.92188 11.7318 7.4978 11.7318 10.6641L11.7318 13.125L8.41144 13.125L8.41144 19.6875L11.7318 19.6875L11.7318 26.3594L4.15039 26.3594C2.7773 26.3594 1.66016 25.2554 1.66016 23.8984L1.66016 4.10156Z" fill="#FFFFFF" fill-opacity="1.000000" fill-rule="nonzero"/>
	</g>
</svg>
