<svg width="24.000000" height="24.000000" viewBox="0 0 24 24" fill="none" xmlns="http://www.w3.org/2000/svg" xmlns:xlink="http://www.w3.org/1999/xlink">
	<desc>
			Created with Pixso.
	</desc>
	<defs/>
	<path id="Vector" d="M12 0C5.373 0 0 5.37305 0 12C0 18.627 5.373 24 12 24C18.627 24 24 18.627 24 12C24 5.37305 18.627 0 12 0ZM15.227 18.1841C13.637 18.0859 10.51 16.26 9.05301 14.6201C7.60001 12.979 6.15701 9.65698 6.25201 8.06396C6.25201 8.06396 7.98399 5.77295 8.77899 5.81909C9.57999 5.86694 11.822 8.39502 10.974 9.14697C10.134 9.89404 9.33701 9.8479 9.29001 10.6411C9.24501 11.436 9.99098 12.282 10.735 13.124C11.487 13.97 12.233 14.8091 13.03 14.854C13.825 14.9041 13.874 14.1111 14.714 13.3589C15.558 12.6111 17.804 15.1431 17.755 15.938C17.711 16.73 15.227 18.1841 15.227 18.1841Z" fill="#FFFFFF" fill-opacity="1.000000" fill-rule="nonzero"/>
</svg>
