<svg width="28.333282" height="28.000000" viewBox="0 0 28.3333 28" fill="none" xmlns="http://www.w3.org/2000/svg" xmlns:xlink="http://www.w3.org/1999/xlink">
	<desc>
			Created with Pixso.
	</desc>
	<defs/>
	<path id="Vector" d="M5.60764 28L22.7256 28C25.8175 28 28.3333 25.5139 28.3333 22.4583L28.3333 5.54175C28.3333 2.48608 25.8175 0 22.7256 0L5.60764 0C2.51575 0 0 2.48608 0 5.54175L0 22.4583C0 25.5139 2.51575 28 5.60764 28ZM1.77084 5.54175C1.77084 3.45093 3.49207 1.75 5.60764 1.75L22.7256 1.75C24.8412 1.75 26.5625 3.45093 26.5625 5.54175L26.5625 22.4583C26.5625 24.5491 24.8412 26.25 22.7256 26.25L5.60764 26.25C3.49207 26.25 1.77084 24.5491 1.77084 22.4583L1.77084 5.54175Z" fill="#FFFFFF" fill-opacity="1.000000" fill-rule="nonzero"/>
	<path id="Vector" d="M14.1674 21.1519C18.1577 21.1519 21.4042 17.9436 21.4042 14.0002C21.4042 10.0569 18.1577 6.84863 14.1674 6.84863C10.1771 6.84863 6.9306 10.0569 6.9306 14.0002C6.9306 17.9436 10.1771 21.1519 14.1674 21.1519ZM14.1674 8.59863C17.1813 8.59863 19.6334 11.0217 19.6334 14.0002C19.6334 16.9788 17.1813 19.4019 14.1674 19.4019C11.1534 19.4019 8.70145 16.9788 8.70145 14.0002C8.70145 11.0217 11.1534 8.59863 14.1674 8.59863Z" fill="#FFFFFF" fill-opacity="1.000000" fill-rule="nonzero"/>
	<path id="Vector" d="M21.6732 8.58887C22.8372 8.58887 23.7144 7.72559 23.7144 6.58105C23.7144 5.3877 22.7912 4.57324 21.6743 4.57324C20.5103 4.57324 19.6332 5.43652 19.6332 6.58105C19.6332 7.77222 20.5516 8.58887 21.6732 8.58887ZM21.8821 6.38867C22.2552 6.71411 21.404 7.10962 21.404 6.58228C21.404 6.26733 21.8373 6.34888 21.8821 6.38867Z" fill="#FFFFFF" fill-opacity="1.000000" fill-rule="nonzero"/>
</svg>
